<?xml version="1.0" encoding="utf-8"?>
<!-- Generator: Adobe Illustrator 25.0.1, SVG Export Plug-In . SVG Version: 6.00 Build 0)  -->
<svg version="1.1" id="Layer_1" xmlns="http://www.w3.org/2000/svg" xmlns:xlink="http://www.w3.org/1999/xlink" x="0px" y="0px"
	 viewBox="0 0 378.3 74.4" style="enable-background:new 0 0 378.3 74.4;" xml:space="preserve">
<style type="text/css">
	.st0{fill:#8f7289;}
	.st1{clip-path:url(#SVGID_2_);}
	.st2{fill:#8f7289;}
</style>
<g transform="translate(-140 -37.885)">
	<path class="st0" d="M265.9,62.3c-0.9-0.5-1.6-0.9-2.2-1.3c-0.5-0.3-1-0.7-1.4-1.1c-0.4-0.4-0.7-0.8-0.9-1.3
		c-0.2-0.5-0.3-1.1-0.3-1.7c0-0.8,0.2-1.5,0.5-2.2c0.3-0.6,0.8-1.2,1.4-1.5c0.6-0.4,1.4-0.6,2.1-0.6c1.1,0,2.2,0.4,2.9,1.1
		c0.7,0.7,1.2,1.6,1.3,2.6h0.2v-4.4h-0.2c-0.1,0.4-0.3,0.6-0.6,0.6c-0.2,0-0.4,0-0.6-0.1c-0.9-0.3-1.8-0.5-2.8-0.5
		c-1.1,0-2.2,0.3-3.2,0.8c-0.9,0.5-1.7,1.2-2.2,2.1c-0.5,0.8-0.8,1.8-0.8,2.8c0,1.5,0.5,2.9,1.6,3.9c0.4,0.4,0.9,0.8,1.4,1.2
		c0.5,0.3,1.2,0.7,2.2,1.3c1.2,0.6,2.3,1.3,3.2,2.3c0.7,0.8,1.1,1.8,1.1,2.8c0,0.6-0.1,1.2-0.4,1.7c-0.3,0.6-0.7,1.1-1.3,1.4
		c-0.8,0.4-1.6,0.6-2.5,0.6c-1.3,0-2.5-0.4-3.6-1.2c-1-0.9-1.7-2.1-2-3.4h-0.2v5.2h0.2c0.1-0.3,0.1-0.6,0.2-0.9
		c0.1-0.1,0.2-0.2,0.4-0.2c0.2,0,0.4,0.1,0.6,0.1c0.6,0.3,1.3,0.6,2,0.8c0.7,0.2,1.5,0.3,2.3,0.3c1.2,0,2.4-0.2,3.4-0.8
		c1.7-0.9,2.7-2.7,2.7-4.6c0.1-1.3-0.4-2.5-1.3-3.4C268.4,63.8,267.2,62.9,265.9,62.3"/>
	<path class="st0" d="M280.9,52.6c0.6,0,1.1,0.2,1.5,0.5c0.5,0.4,0.7,1.1,0.7,1.8v15.7c0.1,0.7-0.2,1.3-0.7,1.7
		c-0.4,0.4-1,0.5-1.5,0.5v0.2h6.6v-0.2c-0.6,0-1.1-0.2-1.5-0.5c-0.5-0.4-0.7-1.1-0.7-1.7V54.9c-0.1-0.6,0.2-1.3,0.6-1.7
		c0.4-0.4,1-0.5,1.6-0.5v-0.2h-6.6V52.6z"/>
	<path class="st0" d="M303.1,62.4h-1.2v-9.4c0.4-0.1,0.9-0.1,1.3-0.1c1.1-0.1,2.2,0.2,3.1,0.8c0.7,0.5,1.3,1.1,1.6,1.9
		c0.3,0.7,0.5,1.5,0.5,2.3c0,0.8-0.2,1.7-0.5,2.4c-0.4,0.7-1,1.2-1.7,1.5C305.2,62.3,304.2,62.5,303.1,62.4 M311.7,69.5l-1.9-3.2
		c-0.8-1.5-2-2.7-3.4-3.6v-0.1c0.9-0.1,1.7-0.5,2.4-1c0.6-0.5,1.1-1.1,1.4-1.8c0.3-0.7,0.5-1.4,0.5-2.2c0-0.6-0.1-1.2-0.3-1.8
		c-0.2-0.6-0.5-1.2-1-1.7c-0.5-0.6-1.1-1.1-1.9-1.4c-0.9-0.4-1.9-0.6-2.9-0.5h-7.2v0.3h0.3c0.5,0,1,0.2,1.3,0.5
		c0.4,0.5,0.7,1.1,0.6,1.7v15.6c0,0.5-0.1,0.9-0.3,1.3c-0.2,0.3-0.5,0.6-0.8,0.7c-0.3,0.1-0.7,0.2-1.1,0.2v0.2h6.6v-0.2
		c-1.1,0.1-2.1-0.7-2.3-1.8c0-0.2,0-0.3,0-0.5V63c0.4,0,0.9,0,1.3,0.1c0.4,0.1,0.8,0.2,1.2,0.4c0.5,0.3,1,0.7,1.5,1.1
		c0.6,0.6,1.1,1.3,1.5,2l2.5,4.1c0,0,0.1,0.2,0.3,0.5c0.2,0.3,0.3,0.5,0.4,0.6c0.2,0.2,0.3,0.4,0.4,0.6c0.1,0.2,0.3,0.4,0.5,0.6h3.8
		v-0.2c-0.6-0.1-1.1-0.3-1.5-0.6C312.9,71.4,312.3,70.5,311.7,69.5"/>
	<path class="st0" d="M347.4,70.5c-0.9,1.3-2.5,2-4.1,1.9c-0.7,0-1.4-0.1-2-0.4c-0.4-0.2-0.7-0.5-0.8-0.9c-0.1-0.4-0.2-0.8-0.1-1.2
		v-7.5h2.1c0.8,0,1.6,0.1,2.4,0.4c0.7,0.2,1.3,0.5,1.8,1c0.5,0.4,0.9,1,1.1,1.6c0.3,0.7,0.4,1.4,0.4,2.1
		C348.3,68.6,348,69.6,347.4,70.5 M340.4,53.3c0.6-0.2,1.2-0.3,1.8-0.3c0.6,0,1.2,0.1,1.7,0.4c0.5,0.2,1,0.6,1.3,1
		c0.4,0.4,0.7,0.9,0.9,1.5c0.2,0.6,0.3,1.2,0.3,1.8c0,0.7-0.1,1.4-0.4,2c-0.2,0.5-0.5,0.9-0.9,1.2c-0.3,0.2-0.6,0.4-0.9,0.6
		c-0.8,0.3-1.6,0.4-2.4,0.3h-1.3L340.4,53.3z M349.9,64.9c-0.3-0.4-0.6-0.8-0.9-1.1c-0.4-0.4-0.8-0.7-1.3-0.9
		c-0.5-0.2-1-0.4-1.5-0.5c-0.6-0.1-1.2-0.2-1.8-0.3v0c1.2-0.3,2.3-0.9,3.2-1.7c0.8-0.8,1.3-1.9,1.2-3c0-0.6-0.1-1.3-0.4-1.9
		c-0.3-0.6-0.7-1.1-1.2-1.5c-0.6-0.5-1.2-0.8-1.9-1.1c-0.8-0.3-1.6-0.4-2.5-0.4h-6.7v0.2h0.3c0.5,0,1.1,0.2,1.4,0.6
		c0.4,0.5,0.6,1.1,0.5,1.7v15.6c0.1,0.6-0.2,1.2-0.6,1.7c-0.4,0.4-0.8,0.6-1.4,0.6h-0.3v0.2h7.7c1.4,0.1,2.9-0.2,4.1-0.8
		c0.7-0.4,1.4-1.1,1.9-1.8c0.6-0.8,0.9-1.8,0.8-2.8c0-0.5-0.1-1-0.2-1.5C350.3,65.8,350.1,65.3,349.9,64.9"/>
	<path class="st0" d="M367,63.9l3.2-9.8h0.1l3.4,9.8H367z M378.8,71.8c-0.4-0.6-0.7-1.3-0.9-2l-6.2-17.7h-1.5l-5.8,17.8
		c-0.2,0.8-0.6,1.5-1.1,2.1c-0.4,0.5-1,0.8-1.7,0.8v0.2h4.9v-0.2c-0.4,0-0.9-0.1-1.2-0.3c-0.3-0.3-0.5-0.7-0.4-1.2
		c0-0.6,0.1-1.1,0.3-1.7l1.6-5.1h7.2l1.8,5.5c0,0.1,0,0.1,0.1,0.2c0.2,0.4,0.2,0.8,0.3,1.3c0,0.6-0.2,0.9-0.6,1.1
		c-0.5,0.2-1.1,0.2-1.6,0.2v0.2h6.7v-0.2c-0.3,0-0.7-0.1-1-0.2C379.3,72.4,379,72.2,378.8,71.8"/>
	<path class="st0" d="M408.8,52.6c0.6,0,1.1,0.1,1.6,0.5c0.3,0.3,0.6,0.7,0.6,1.2c0.1,0.7,0.1,1.5,0.1,2.2v13.3l-15.6-17.5h-3.9v0.2
		c0.5,0.1,0.9,0.2,1.4,0.4c0.6,0.4,1.1,0.8,1.5,1.3l0.7,0.8v13.5c0,0.9,0,1.8-0.2,2.6c-0.1,0.5-0.3,0.9-0.7,1.2
		c-0.4,0.2-0.9,0.4-1.4,0.4v0.2h5.2v-0.2c-0.7,0-1.4-0.2-1.8-0.8c-0.2-0.3-0.3-0.7-0.4-1.1c-0.1-0.8-0.1-1.6-0.1-2.4V55.9l15.9,17.7
		h0.1V55.5c0-0.6,0.1-1.2,0.2-1.7c0.1-0.3,0.4-0.6,0.7-0.8c0.4-0.2,0.8-0.3,1.2-0.3v-0.2h-5.2L408.8,52.6z"/>
	<path class="st0" d="M431.5,72.8c-0.6,0-1.1-0.2-1.5-0.5c-0.5-0.4-0.7-1.1-0.7-1.7V54.9c-0.1-0.6,0.2-1.3,0.6-1.7
		c0.4-0.4,1-0.5,1.6-0.5v-0.2H425v0.2c0.6,0,1.1,0.2,1.5,0.5c0.5,0.5,0.7,1.1,0.7,1.8v15.7c0.1,0.7-0.2,1.3-0.7,1.7
		c-0.4,0.4-1,0.5-1.5,0.5v0.2h6.5L431.5,72.8z"/>
	<path class="st0" d="M471.2,52.4h-5.3v0.2c0.2,0,0.3,0.1,0.5,0.1c0.5,0.2,0.7,0.6,0.7,1.1c-0.1,0.7-0.4,1.4-0.9,2l-3.8,5.7
		l-4.3-6.4c-0.3-0.4-0.5-0.8-0.5-1.3c0-0.3,0.1-0.6,0.3-0.8c0.2-0.3,0.7-0.5,1.4-0.5v-0.2H452v0.2c0.6,0,1.3,0.1,1.8,0.4
		c0.6,0.5,1.1,1,1.5,1.7l5.3,7.9v7.9c0.1,0.6-0.2,1.2-0.6,1.7c-0.4,0.4-1,0.6-1.6,0.6v0.2h6.5v-0.2c-0.6,0-1.2-0.2-1.6-0.6
		c-0.5-0.4-0.7-1-0.7-1.7v-8.3l4.8-7.3c0.3-0.4,0.6-0.8,0.9-1.1c0.3-0.3,0.7-0.6,1.1-0.9c0.5-0.3,1.1-0.4,1.6-0.4V52.4z"/>
	<path class="st0" d="M482.6,63.9l3.2-9.8h0.1l3.4,9.8H482.6z M494.4,71.8c-0.4-0.6-0.7-1.3-0.9-2l-6.2-17.7h-1.5l-5.8,17.8
		c-0.2,0.8-0.6,1.5-1.1,2.1c-0.4,0.5-1,0.8-1.7,0.8v0.2h4.8v-0.2c-0.4,0-0.9-0.1-1.2-0.3c-0.3-0.3-0.5-0.7-0.4-1.2
		c0-0.6,0.1-1.1,0.3-1.7l1.6-5.1h7.2l1.8,5.5c0,0.1,0,0.1,0.1,0.2c0.2,0.4,0.2,0.8,0.3,1.3c0,0.6-0.2,0.9-0.6,1.1
		c-0.5,0.2-1.1,0.2-1.6,0.2v0.2h6.7v-0.2c-0.3,0-0.7-0.1-1-0.2C494.9,72.4,494.6,72.2,494.4,71.8"/>
	<path class="st0" d="M517,64.8c-1.1-1-2.3-1.8-3.5-2.5c-0.9-0.5-1.6-0.9-2.2-1.3c-0.5-0.3-1-0.7-1.4-1.1c-0.4-0.4-0.7-0.8-0.9-1.3
		c-0.2-0.5-0.3-1.1-0.3-1.7c0-0.8,0.2-1.5,0.5-2.2c0.3-0.6,0.8-1.2,1.4-1.5c1.6-0.9,3.7-0.7,5.1,0.6c0.7,0.7,1.2,1.6,1.3,2.6h0.2
		v-4.4H517c-0.1,0.4-0.3,0.6-0.6,0.6c-0.2,0-0.4,0-0.6-0.1c-0.9-0.3-1.8-0.5-2.8-0.5c-1.1,0-2.2,0.3-3.2,0.8
		c-0.9,0.5-1.7,1.2-2.2,2.1c-0.5,0.8-0.8,1.8-0.8,2.8c0,0.8,0.1,1.5,0.4,2.2c0.3,0.6,0.7,1.2,1.2,1.7c0.4,0.4,0.9,0.8,1.5,1.2
		c0.5,0.3,1.2,0.7,2.2,1.3c1.2,0.6,2.3,1.3,3.2,2.3c0.7,0.8,1.1,1.8,1.1,2.8c0,0.6-0.1,1.2-0.4,1.7c-0.3,0.6-0.7,1.1-1.3,1.4
		c-0.8,0.4-1.6,0.6-2.5,0.6c-1.3,0-2.5-0.4-3.5-1.2c-1-0.9-1.7-2.1-2-3.4h-0.2v5.2h0.2c0.1-0.3,0.1-0.6,0.2-0.9
		c0.1-0.1,0.2-0.2,0.4-0.2c0.2,0,0.4,0.1,0.6,0.1c0.6,0.3,1.3,0.6,2,0.8c0.7,0.2,1.5,0.3,2.3,0.3c1.2,0,2.4-0.2,3.4-0.8
		c1.7-0.9,2.7-2.6,2.7-4.6C518.3,66.9,517.9,65.7,517,64.8"/>
	<path class="st0" d="M233.3,79.5c-1.3-1-2.6-2-3.9-2.9c-0.4,1.1-0.7,2-1,2.9c1.7,0.9,3.4,1.9,5,3c2.4,1.7,9.2,7.8,11.3,10.7
		C242.7,89.7,235.9,81.6,233.3,79.5"/>
	<path class="st0" d="M229.7,76.4c-0.5,0.8-0.3,1.6-0.8,2.3c0.1,0.1,0.3-0.1,0.3,0.1c-0.5,0.2-0.2,0.8-0.4,1.3
		c-0.2,0.3-0.4,0.3-0.6,0.4c0.1,0.3,0,0.7-0.1,1c0.4,0.2,0.5-0.2,0.7-0.5c0-0.1-0.1-0.1-0.1-0.2c0.3,0,0.4-0.8,0.6-0.4
		c-0.4-1,0.6-1.5,0.8-2.8C229.6,77.2,229.9,76.8,229.7,76.4 M204.2,53.3c0.5,0.4,0.7,0.2,1.6,0.4c0.2,0.1,0,0.3,0.1,0.5
		c0.2,0,0.5,0,0.7,0c0.1-0.2-0.2-0.4,0.2-0.5C205.8,53.5,205.2,53.3,204.2,53.3 M204,41c0.6,0,0.3,0.2,0.3,0.4
		c0.5,0,0.3,0.2,0.5,0.2c0.2-0.1,0.5,0,0.8-0.1c0.1,0.4,0.9,0.3,0.8,0.1c0.8,0.3,1.7,0.4,2.5,0.4c0.2,0.1,0.3,0.1,0.2,0.3
		c0.4,0,1,0.1,1.3,0c-0.8,0.1-1.5-0.2-2.1-0.8c-0.2,0.2-0.2,0-0.6,0c0,0.3-1,0.1-1.2,0c0.1-0.1,0.5,0.1,0.5-0.1
		c-1-0.1-2.1,0.2-2.5-0.4c0.2,0,0.4,0.1,0.4,0c-0.3-0.1-0.6-0.2-1-0.1C204.6,40.9,204,40.9,204,41 M191.6,49.6
		c0.8,0.4,1.4-0.1,1.8,0.3c0.1-0.1,0.2-0.2,0.4-0.2c0,0.1,0.8,0.2,1,0.1c-0.9-0.3-1.9-0.5-2.9-0.5C191.8,49.4,191.7,49.5,191.6,49.6
		 M190.3,50.8c0.5,0.4,2,0.3,2.9,0.5c-0.4-0.6-1.7-0.3-2.7-0.7C190.5,50.8,190.3,50.7,190.3,50.8 M194.8,39.8
		c0.7,0.3-0.8,0.2-0.2,0.6c0.3,0.1,0.6,0.1,0.9,0c-0.2,0-0.3-0.1-0.4-0.2c0.4-0.1,0.6,0.3,0.7,0c0-0.1-0.5-0.1-0.6-0.3
		c0.4,0,0.5,0.2,0.9,0C195.6,39.9,195,39.7,194.8,39.8 M189.4,48.8c0.2,0.3-0.1,0.4,0.2,0.6c0.4,0.1,1.1-0.1,1.4,0.2
		c0.1-0.2,0.9-0.3,0.2-0.5c0,0.1,0,0.2-0.2,0.2l-0.3-0.1c-0.2-0.2,0.2-0.2,0-0.4c-0.2,0.2-0.5-0.2-0.6,0c0.1,0,0.3,0.1,0.2,0.1
		C189.7,48.8,189.8,49,189.4,48.8 M182.8,49.7c-0.3-0.2-1.1,0.4-1.4,0.6c-0.2-0.1,0.1-0.2-0.2-0.2c-0.6,0.6-1.4,0.9-1.9,1.4
		c0.4,0,0.4-0.2,0.7-0.2c-0.2,0.1-0.3,0.3-0.3,0.4C180.8,51.1,181.8,50.4,182.8,49.7 M161.1,72.4c0.3,0,0.3,0.3,0.5-0.1
		c-0.4-0.6,0.1-1.4-0.4-1.9c-0.2,0.3,0.1,0.8-0.4,1c0.2,0.5-0.1,0.9,0.3,1.2L161.1,72.4z M161.8,74.6c-0.2,0.1-0.2-0.5-0.4-0.2
		c0-0.2,0-0.3,0-0.5l-0.1-0.1l0-0.1l0,0c-0.2-0.7,1.4,6.4,0.7,3.4v0v0c0-0.1,0-0.2,0-0.4c-0.1,0-0.1,0.2-0.1,0.3
		c-0.1-0.5,0.4-1.1,0.2-1.4c0.1,0.3,0.3,0.6,0.4,0.8l0.2,0.4l0.1,0.2v0.1v0v0v0c-0.3-1.6,0.8,3.7-0.8-3.7v0h0c1.6,7.3,0.4,2,0.8,3.7
		l0,0l0,0l0,0l0,0l-0.1-0.1l-0.1-0.2l-0.2-0.4c-0.1,0-0.1,0.2-0.2,0.2c0,0.1,0,0.2,0.1,0.3l0,0.1l0,0v0c0.2,0.8-1.4-6.6-0.8-3.5l0,0
		l0,0l0.1,0.1C161.7,74.4,161.8,74.3,161.8,74.6 M205.6,90.2c-0.1-0.1-0.3,0.1-0.2,0.2c0.3-0.2,0.4,0,0.7-0.4
		c-0.1-0.1-0.3-0.1-0.5,0C205.7,90,205.7,90.1,205.6,90.2 M206.5,88.3c-0.6,0.4-1.2,1-1.8,1.6C205.4,89.4,206,88.9,206.5,88.3
		 M215.9,81c0.1,0.1,0.1,0.1,0.2,0.2v0.2c-1.3,1.8,1.8-2.5,1.5-2h0l0,0l0,0l-0.1,0.1c-0.2,0.2-0.4,0.4-0.6,0.7
		c-0.3-0.2-0.4,0.3-0.6,0.3c0.1-0.5,0.8-0.6,0.9-1.1c0.1,0.1,0.1,0.1,0.2,0.1l0,0l0,0l0,0l0,0v0c0.3-0.5-2.9,4-1.6,2.1
		C215.7,81.3,215.8,81.1,215.9,81 M215.8,80.3c0,0.3,0.3-0.1,0.3,0.2c-0.1,0.2-0.3,0-0.3,0.3C216.4,80.8,216.2,79.7,215.8,80.3
		 M230.4,81.2c-0.4,0.4-0.6-0.5-0.9,0.2c0.2,0,0.5,0,0.5,0.3c-0.2,0.1-0.5,0.8-0.1,0.8c0.4-0.4,0.2-0.8,0.4-1.2
		C230.3,81.3,230.4,81.3,230.4,81.2 M215.8,78.4c-0.1,0.4-1.1,1.8-0.5,1.9C215.2,79.6,215.9,78.9,215.8,78.4 M217.5,76
		c0,0.1-0.1,0.4,0,0.2c0-0.3,0.1-0.3,0.1-0.5c-0.2-0.1-0.3,0.1-0.5,0.2C217.3,76.2,217.3,76,217.5,76 M230.1,75.3
		c0,0.4-0.2,0.5-0.4,0.7c0.2,0.4,0.4,0.3,0.7,0.6c-0.1-0.3,0.5-0.9,0.3-1.3c-0.2,0.1-0.3,0.5-0.5,0.7
		C230,75.7,230.4,75.3,230.1,75.3 M228.2,75.3c0.1-0.3,0.1,0.2,0.2,0.2c0.2-0.1,0.5-0.5,0.1-0.5c-0.1,0.7-0.2-0.2-0.4,0.1
		C228.2,75,228.1,75.2,228.2,75.3 M234.7,70.1L234.7,70.1L234.7,70.1c0.6,9.4,0.2,2.6,0.3,4.7v0v0L235,75c-0.1,0.1-0.1,0.2,0,0.3
		c0-0.1,0.1-0.2,0.2-0.3l0.1-0.1l0,0l0,0l0,0l0,0h0l0,0c0.1,1.1-0.6-9.1-0.3-4.8l0-0.2C234.9,69.9,234.9,70,234.7,70.1
		C234.7,70,234.6,70,234.7,70.1L234.7,70.1z M235.1,67.9c-0.1-0.4,0.4,0.6,0.3,0c-0.2,0-0.3-0.4-0.5-0.4
		C234.9,67.6,234.9,67.9,235.1,67.9 M226.2,70.3c0.3-0.2,0.1,0.4,0.5,0.4c-0.1-0.4-0.4-0.8-0.7-1L226.2,70.3z M232.4,64
		c0.1,0.2,0.6,0.7,0.4,0.9c-0.1-0.4-0.4,0.2-0.6,0.3c0.5,0,0.3,0.6,0.7,0.9c0.3-0.1,0.2-0.5,0.1-0.8c-0.4-0.1,0.2,0.5-0.2,0.4
		c-0.1-0.3-0.2-0.4-0.1-0.6c0,0.1,0.1,0.1,0.2,0.1C232.9,64.7,232.9,64,232.4,64 M229.5,65.4c0.3,1.1,0.8,2.1,1.4,2.9
		c-0.4,0.2,0.3,0.6,0.2,0.9c0.2-0.1,0.1-0.3,0.1-0.6c-0.5-0.9-0.9-1.8-1.2-2.8c-0.2,0.1-0.4-0.1-0.6-0.2c0.2-0.2,0-0.8-0.2-1
		c-0.3,0.1-0.1,0.4-0.3,0.6C229.3,65.1,229.4,65.3,229.5,65.4 M232.1,63.4c-0.2,0-0.1,0.2-0.2,0.3c0-0.3-0.3-0.6-0.3-0.3
		c0.1,0.1,0,0.5,0.5,0.6c0-0.1,0.1-0.2,0.2-0.2c-0.1-0.6-0.6-2.2-1-2c0.2,0.2,0.4,0.7,0.2,1c-0.2-0.3-0.2,0.3-0.5,0
		c0.2,0.3,0.7,0.6,0.7,0.2C231.9,63.1,232,63.2,232.1,63.4 M228.4,55.7c0.3,0.6,0.3,1.2,0.9,1.5C228.8,56.7,228.9,56.1,228.4,55.7
		 M223.2,53c0.3,0.2-0.1,0.5,0.3,0.5l-0.2-0.2l0.3-0.2c-0.1-0.1-0.2-0.2-0.3-0.2L223.2,53z M226.2,56.2c0.1-0.3,0.7,0,0.5,0.3
		c-0.1,0-0.4-0.6-0.4-0.1c0.4,0.1-0.2,0.1-0.1,0.2c0.3,0.4,0.3,0.7,0.7,1.3c0.1,0,0.2,0,0.3,0c0.2-0.4-0.9-1.5-0.2-1.4
		c0-0.4-0.3-0.4-0.3-0.8c-0.2,0-0.3,0-0.5-0.1l-0.1-0.1l0,0h0v0l0,0c-1.9-2.9-0.5-0.8-0.9-1.5h0l0,0l-0.1,0l-0.2-0.2
		c0.3-0.2-0.3-0.3-0.4-0.7c-0.2,0.2-0.7-0.4-0.7-0.6c-0.1,0.3,0.2,0.7,0.6,1.1l0.3,0.3l0.1,0.1l0.1,0.1l0,0l0,0v0
		c-0.2-0.3,1.7,2.7,0.9,1.4v0C226,55.8,226.1,56,226.2,56.2 M219.8,53.9c0.6,0.5,1.1,1.1,1.6,1.7l0.2,0.2v0c1,1.5,0.3,0.4,0.5,0.8v0
		l0,0l0,0l0,0.1l0.1,0.1l0.3,0.6c0.2,0.4,0.4,0.8,0.6,1.3c0.2-0.4-0.2-1-0.5-1.6l-0.2-0.4l0-0.1l0-0.1v0c0.4,0.7-0.6-1-0.5-0.8l0,0
		l0,0l0,0l0,0l-0.1-0.2c-0.2-0.2-0.2-0.4-0.1-0.5C220.8,54.7,220.6,53.8,219.8,53.9 M222.2,52.7c-0.2,0-0.4-0.2-0.5,0
		c0.2,0.3,0.3,0.6-0.1,0.7c0.4,0.4,0.8,0.8,1.1,1.2c0.1,0.2,0.2,0.3,0.3,0.5l0,0v0c0.3,0.5-0.7-1,0.7,1v0.3l0,0.3
		c0.3,0.3,0.1-0.4,0.3-0.1c-0.3,0.3,0.6,0.5,0.4,0.8c-0.1-0.2-0.2-0.4-0.4-0.4c0.2,0.3,0.4,0.8,0.7,0.9c0-0.1,0.1-0.1,0.2-0.2
		c-0.3-0.5,0.1-0.6,0.3-0.3c-0.3-0.4-1.2-1.1-1-1.5c0.2,0.4,0.5,0.4,0.7,0.6c-0.1-0.2-0.2-0.3,0-0.4c0.3,0.4,0.3,0.5,0.7,0.6
		c-0.6,0.4,0.3,0.8,0.6,1.5c0.3,0.8,0.3,1.5,1.1,2c-0.3,0.6,1,1.9,0.8,2.9c0.4-0.2,0,0.2,0.3,0.2c0-0.3,0.6,0.7,0.7,0.2
		c-0.3-0.3-0.6-0.6-0.4-0.9c-1.1-0.7-0.6-2.1-1.4-2.7c-0.1-0.4-0.2-0.7-0.3-1.1c-0.2-0.1-0.4,0-0.5-0.2c0.4-0.2-0.1-0.3-0.3-0.6
		c0.2-0.1,0-0.7-0.2-1.3c-0.1-0.3-0.2-0.5-0.4-0.7c-0.1-0.1-0.1-0.2-0.2-0.3l-0.1-0.1l0,0l0,0l0,0c-1.6-2.6-0.5-0.7-0.8-1.3l0,0
		c-0.1-0.2,0.1-0.2-0.1-0.4c-0.3-0.2-1-0.5-1.1-0.1c0.2-0.1,0.3,0,0.5,0.2c-0.3,0.2,0.2,0.3-0.1,0.4c0-0.3-0.6-0.6-0.5-0.4
		c0.1-0.1,0.3,0.3,0.2,0.4c-0.2-0.3-0.5-0.3-0.7-0.6C222.9,53.5,221.9,53.4,222.2,52.7 M226,52.2c0.1,0.1,0.2,0.2,0.4,0.2
		c-0.1-0.1,0-0.2-0.1-0.4c-0.6-0.3-1.1-1.4-1.8-1.4l0.1,0.2c0,0-0.1,0.1,0,0.1c0.2-0.2,0.3-0.1,0.5,0.2c-0.3,0.2-0.1,0.2-0.5,0.2
		c0,0.2,0.2,0.4,0.4,0.6c0.4,0.1,0.8,0.3,1.1,0.7l0.5,0.6l0,0l0,0v0l0,0c-1-1.5,1.3,2.1,1.1,1.7l0,0l0,0.1l0.1,0.2l0.1,0.3
		c0.3,0.1-0.1-0.4,0.3-0.3c0,0.1,0.1,0.2,0.2,0.2c-0.1-0.2-0.2-0.4-0.3-0.6l0,0c1,1.6-1.4-2.2-1.1-1.8v0l0,0l0,0l0-0.1l-0.1-0.1
		l-0.2-0.3c-0.1,0-0.3,0.2-0.4,0.1C226.2,52.4,226,52.5,226,52.2 M221.4,47.9c0.3,0-0.1,0.3,0.3,0.4c0.1-0.1,0.3-0.2,0-0.5
		C221.7,48,221.2,47.7,221.4,47.9 M221.8,47c0.2,0.3,0.7,1.2,1.1,1c-0.2-0.2-0.5-0.3-0.5-0.6C222.2,47.8,222.2,47,221.8,47
		 M210.2,51.8c0.2,0.1,0,0.4,0.3,0.4l-0.2-0.2c0.1,0,0.2,0.1,0.3,0l-0.2-0.3L210.2,51.8z M209.7,41.2c-0.1,0.3,1.3,0.3,1.5,0.7
		c0.3-0.2,0.2,0,0.4,0.1c0.3-0.1,0.1-0.2,0-0.4c0.3,0.1,0.7,0.1,0.7,0c-0.5,0-1.1-0.3-0.9,0c-0.2-0.1-0.2-0.2-0.4-0.2
		c-0.3,0,0.1,0.2-0.2,0.2c-0.4,0-0.2-0.2-0.3-0.3C210.3,41.3,210,41.2,209.7,41.2 M210.6,41.7c-0.7-0.1-1.3-0.6-1.8-0.3
		c0.4,0.2,0.6,0.1,1.2,0.3C209.8,41.3,210.9,42,210.6,41.7 M208.1,40.5c0.2,0.5,1.5,0.6,2.1,0.3c-0.6-0.2-1.1,0.2-1.2-0.2
		C208.6,40.5,208.5,40.6,208.1,40.5 M207.7,44.7c0,0.2-0.5,0.1,0.1,0.2c1.6-0.3,3.1,0.6,5,0.6c0.1-0.4-0.6-0.3-0.9-0.3
		c-1.5-0.3-3.1-0.7-4.4-0.9c0.3-0.1,0.6-0.4,0.4-0.7c-0.7,0.1-1.4,0-2.1-0.3c-0.2,0.2-0.6,0.3,0,0.5c0-0.3,1.8,0,1.6,0.3
		c-0.4,0.2-1.6-0.2-2.1-0.3c0.2,0.4-0.2,0.5,0.3,0.8c-0.3-0.4,0.7-0.1,0.4-0.4c0.1,0,0.2,0,0.3,0c0.1,0.4,1.2,0.2,0.9,0.6
		C207.4,44.8,207.5,44.7,207.7,44.7 M203.2,41.5c0.1-0.1,0.4-0.1,0.6,0c0-0.2,0.5,0,0.4-0.4c-0.8,0-1.4-0.4-1.8-0.1
		c0.3-0.2-0.6-0.3-0.7-0.2c0.2,0,0.5,0.3,0.2,0.2c-0.5-0.3-1-0.4-1.6-0.5c0.1,0.4-0.2,0.1-0.4,0.4c0.6,0.2,0.6-0.1,1.2,0
		c-0.3,0.2,1.5,0.5,1.5,0.4c0.2,0,0.1,0.1,0.2,0.2c0.2,0,0.1-0.2,0.5-0.1C203.3,41.4,203,41.4,203.2,41.5 M199.6,40.2
		c0.2,0,0,0.2,0.2,0.3c0-0.2,0.3,0.3,0.4,0C200.1,40.4,199.3,40,199.6,40.2 M196.7,40.7c-0.5-0.1,0.4-0.2-0.1-0.2c0,0,0,0.1-0.2,0
		c0-0.1,0-0.2-0.2-0.2C196,40.5,196.3,40.8,196.7,40.7 M195.8,41.5c-0.3,0.3,0.3,0.8,0.5,0.5C195.8,41.9,196.3,41.6,195.8,41.5
		 M193.4,46.4c0.5,0,1.4,0.3,1.6,0c-0.4-0.2-0.4,0-0.6,0c0.2-0.3-0.7-0.3-1-0.4C193.6,46.1,193.1,46.2,193.4,46.4 M192.1,39.6
		c0.1,0.5,1.8,0.7,2.3,0.6c-0.6-0.1-0.4-0.3-0.9-0.3c-0.3-0.1,0.2-0.4-0.3-0.4c-0.2,0.1,0.3,0.3-0.1,0.3c-0.2,0-0.1-0.1-0.2-0.2
		c0.1,0.3-0.7,0.2-0.6,0.1C192.2,39.7,192.2,39.6,192.1,39.6 M189.2,47.6c-0.7,0.3,1.9,0.5,1.8,0.2c-0.4,0-0.7,0-1.3,0
		c0.4-0.1-0.2-0.2-0.3-0.3c0.1,0.2-0.6,0.1,0.2,0.1C189.5,47.6,189.4,47.5,189.2,47.6 M188.5,46.5c0.5,0,1.1,0,1.6,0.1
		C190,46.1,189,46.4,188.5,46.5 M188.8,48.5c0.1-0.2,0.2-0.1,0.6-0.1v-0.2c-0.4,0-0.3,0.1-0.6,0.1c0-0.1,0-0.1-0.1-0.1
		c0,0.1-0.2,0.1-0.1,0.2C188.7,48.5,188.7,48.5,188.8,48.5 M188,40.5c0.3,0,0.7-0.1,1-0.1c-0.1,0-0.2,0-0.1-0.1c0.2,0,0.4,0,0.4-0.1
		c-0.7-0.1-1,0.2-1.3,0.1L188,40.5z M186.7,49.1c0.5-0.1,1-0.1,1.5-0.1c-0.1,0-0.2,0-0.1-0.1c0.3,0,0.4-0.1,0.4-0.2
		c-0.5,0.1-1,0-1.6-0.1C186.9,48.8,186.8,48.9,186.7,49.1 M180.8,50.9c0.1,0,0.2,0.1,0.1,0.1h0.4c0-0.2,0.2-0.1,0-0.3
		c-0.3,0-0.3,0.1-0.4,0.1C180.9,50.9,180.8,50.9,180.8,50.9 M170.5,42.3c0.1-0.1,0.6-0.6,0.2-0.5c-0.2,0.2-0.4,0.9,0,0.5
		C170.6,42.3,170.5,42.3,170.5,42.3 M174.8,46.6c0.4-0.2,0.9-0.7,0.6-0.6C175.4,46.2,174.7,46.4,174.8,46.6 M171.3,44.1
		c0.1-0.6,1.5-0.7,1.4-1.4c-0.9,0.7-1.4,0.7-2.1,1.5C171,43.9,171,44.4,171.3,44.1 M168.9,42.7c0.6-0.4,0.1,0.5,0.7,0.1
		c0-0.3,0.3-0.3,0.4-0.5c-0.2,0.1-0.2,0-0.4,0C169.4,42.5,168.6,42.7,168.9,42.7 M169.8,44.8c0.2,0,0.7,0,0.7-0.2l-0.2,0.1
		C170.5,44.4,169.8,44.5,169.8,44.8 M167.6,41.2c-0.1-0.1,0.2-0.3,0.1-0.4c-1.1,0.4-1.2,0.7-2.4,1.2c0.4,0,0.2,0.4,0.5,0.3
		c-0.2-0.2,0.3-0.7,0.7-0.7c-0.1,0.1-0.2,0.2-0.1,0.2C166.8,41.7,167,41.3,167.6,41.2C167.5,41.2,167.5,41.3,167.6,41.2 M175.6,51.6
		c-0.1-0.2,0.4-0.5,0.5-0.8C175.8,50.9,174.9,51.8,175.6,51.6 M169.8,46.8c0.2-0.1,0.3,0.2,0.5,0.1c0.4-0.3,1.9-1.5,0.5-0.7
		c0,0.3-0.7,0.6-0.2,0.1C170.3,46.5,170,46.6,169.8,46.8 M166.2,44.3c-0.4-0.1,0.1-0.5-0.6-0.6c-0.3,0.2-0.4,0.3-0.4,0.4
		c0.2,0,0.5-0.2,0.7-0.2c-0.3,0.2-0.3,0.4-0.4,0.6c-0.1-0.2-0.3,0.1-0.5,0.2C165.2,45.1,165.8,44.5,166.2,44.3 M168.9,45.5
		c0,0,0.1,0,0.1-0.1c-0.2,0.1-0.3-0.4-0.9,0c0.1,0.1,0.3,0,0.4,0c-0.3,0.2-0.5,0.3-0.6,0.6l-0.2-0.2c-0.3,0.3-0.5,0.3-0.9,0.7
		c0.2,0.1,0.2,0.4,0.5,0.3c0.6-0.3,1.1-1,1.7-1.1C168.9,45.5,168.5,45.7,168.9,45.5 M170.2,50.3c0,0-0.1-0.1,0.1-0.1
		c0.2-0.2,0.5-0.2,0.8-0.1c-0.1-0.1,0.1-0.2,0.1-0.3c-0.5,0.1-0.5-0.2-0.9-0.3c-0.3,0.1-0.1,0.2-0.5,0.4c0.1,0.2,0.4-0.1,0.6,0
		C170.2,50,169.9,50.4,170.2,50.3 M170.6,51.1c0.3-0.1,0.7-0.1,1.1,0c-0.1,0.1-0.3,0.2-0.3,0.3c0.3,0.1,1.1-0.5,0.4-0.4
		c-0.1,0.3-0.2,0-0.4-0.2c-0.2,0-0.4,0.1-0.6,0.3c-0.1-0.1,0-0.1,0-0.2l-0.3,0.2L170.6,51.1z M168.7,50.8c0.4-0.1,0.6-0.3,0.5-0.5
		c-0.3,0.1-0.4-0.1-0.7,0.2C168.4,50.6,168.5,50.7,168.7,50.8 M165.8,45.1c0.5,0.2-0.5,0.3,0,0.3c0.3,0,0.5-0.5,0.7-0.2
		c-0.4,0.3-0.8,0.8-1.3,0.8c0.2,0.2-0.8,0.8-0.4,0.9c0-0.1,0.6-0.4,0.6-0.6c0.5-0.1,0.8-0.7,1.7-0.8c-0.2-0.1-0.4,0-0.1-0.3
		c1.1-0.2,2-0.8,2.7-1.6c1.1-0.1,2.1-1.4,3.3-1.9c-0.3-0.1-0.5,0-0.3-0.3c-0.5,0.2-0.3,0.4-0.4,0.6c-0.4-0.1-0.6-0.1-0.3-0.5
		c-0.3,0.2-0.3,0-0.6,0.2c0.1,0.2-0.1,0.6,0.4,0.6c-0.7,0.7-1.2,0.4-1.5,0.9c-0.1-0.2-0.4-0.1-0.6,0c0.1,0.1,0.2,0.2,0.1,0.3
		c-0.7,0.1-1.4,1.2-2.3,1.2c0.1,0.1,0.4,0.2,0,0.4c0.1-0.5-0.4,0.1-0.8,0.1c-0.1-0.2,1.4-0.9,0.5-0.7c0.2-0.2,0.7-0.2,0.5-0.3
		c-0.6,0.2-0.1-0.2,0-0.4c-0.9,0.3-1,0.6-1.8,0.9c-0.1,0.1,0.2,0.2,0,0.4c-0.3-0.2-0.7,0.3-0.6,0.5c-0.4,0-0.7,0.6-1,0.2
		c-0.2,0.2-0.6,0.1-0.4,0.3c0.4-0.2-0.1,0.2,0,0.3c0.3-0.1,0.4,0.2,0.7,0c-0.1-0.3,0.5-0.6,0.9-0.7
		C165.3,45.4,165.7,45.2,165.8,45.1 M166.1,49.9c-0.1,0.4,0.5,0.1,0.8-0.1c-0.3-0.2,0.5-0.2,0.3-0.4c-0.5,0.1-0.5,0.3-0.8,0.6
		C166.3,49.9,166.3,49.8,166.1,49.9 M166.7,49.3c-0.3-0.3,0-0.5-0.6-0.6c-0.1,0.5-0.8,0.5-0.8,0.8C165.8,49.3,166.1,49.6,166.7,49.3
		 M160.5,45.1c0.7-0.2,1.4-0.5,2.1-0.9c-0.3-0.4,0.5-0.5,1-0.8c-0.8,0.2-1.5,0.5-2.2,1c0.2,0.1,0.8-0.5,1-0.3
		C161.7,44.6,160.9,44.7,160.5,45.1 M162.5,48.1c0.7-0.2,0.8,0,0.9,0.2c0.3-0.2,0.1-0.5-0.4-0.4c0.4-0.2,0.5-0.6,0.9-0.5
		c0.1,0.1-0.3,0.2-0.2,0.3c0.3-0.2,1-0.5,0.9-0.7c-0.8,0.4-0.3-0.1-0.6-0.3l-0.7,0.4C163.7,47.5,162.7,47.7,162.5,48.1 M160.4,49.5
		c0.4-0.3,0.9-0.4,1.4-0.5c0-0.2-0.4-0.3,0.4-0.7C161.6,48.2,161.1,49.2,160.4,49.5 M161.4,49.3c-0.2-0.2-0.7,0.3-0.9,0.3
		c0.1,0,0.2,0.4,0.4,0.2c-0.1-0.1,0.1-0.2,0.2-0.1c0,0,0.1,0,0.2,0c0,0,0,0,0,0c-0.1-0.1-0.2,0-0.3-0.2
		C161.1,49.2,161.4,49.5,161.4,49.3 M161.8,65.3c0.1-0.3,0.7-0.3,0.5-0.7C162.2,64.7,161.5,65.4,161.8,65.3 M161.4,66.7
		c-0.2-0.1-0.2-0.3-0.1-0.6l0-0.2l0-0.1l0,0v0h0v0c-0.3,1,0.7-2.1-0.7,2.1l0,0v0l0-0.1c0.1-0.1,0.2-0.3,0.2-0.5
		c0.3,0,0.1,0.3,0.2,0.3c0.1-0.2,0.1-0.3-0.1-0.4c0.4-0.3,0.4-0.6,0.8-0.9c0.3,0.5-0.7,0.7-0.7,1.1c0.1,0.1,0.2,0,0.3-0.1
		c0,0.1-0.1,0.3-0.2,0.4l-0.3,0.2l0,0h0h0c1.5-4.5,0.4-1.2,0.7-2.2l0,0l-0.1,0.1l-0.1,0.1c0,0.2,0,0.4,0.1,0.4
		C161.7,66.5,161.4,66.4,161.4,66.7c0,0,0-0.1-0.1-0.1C161.3,66.7,161.4,66.7,161.4,66.7 M161.7,66.7c0-0.1-0.1-0.1-0.1,0
		c0.3,0.1,0,1,0.3,1.1c0.1-0.4,0.1-0.9,0-1.3C161.9,66.6,161.8,66.7,161.7,66.7 M140.3,69c-0.2,0.1-0.2,0.5-0.3,0.7
		c0.3,0.2-0.1,0.5,0.2,0.7c0.1-0.7,0.2-1.4,0.3-2.2c-0.1,0.4-0.1-0.5-0.3,0C140.4,68.5,140,69.1,140.3,69 M140.2,71.3
		c0.2,0,0.4-1,0.1-0.6C140.5,70.6,140,71.6,140.2,71.3 M163.2,74.5c-0.2-0.1,0.2-0.3,0.1-0.5c-0.4,0-0.3-0.5-0.4-0.8
		c-0.2,0.4-0.3,0.8-0.2,1.2c0-0.2,0-0.4,0.2-0.3C162.9,74.3,163.1,74.8,163.2,74.5 M164.2,76.9c-0.1-0.1-0.2-0.3-0.1-0.3
		c0.2,0.2,0.6,1.1,0.7,0.7c-0.3-0.1-0.5-0.9-0.8-0.9C164.1,76.6,163.8,76.9,164.2,76.9 M166.9,80.2c0.1-0.2-0.7-1-0.6-1
		C166.2,79.5,166.7,80,166.9,80.2 M169.4,85.1c-0.6,0,0.5,0.2,0.5,0l-0.6-0.3C169.1,84.9,169.3,85,169.4,85.1 M203.7,92.1
		c-0.6,0-0.1-0.2,0.1-0.3l-1,0.2c0.1,0.4,0.9,0.1,0.8,0.2C203.6,92.2,203.7,92.2,203.7,92.1 M185.7,47.4c0.5,0.1,0-0.3,0.6-0.2
		c0.2,0.3-0.4,0.1-0.3,0.3c0.3,0.1,0.7,0.2,1,0.2c-0.4-0.1-0.3-0.5-0.6-0.7c-0.4-0.1-0.4,0.1-0.7,0.1L185.7,47.4z M201,46.1
		c0.3,0,0.8,0.2,0.8,0.1C201.5,46.1,201.1,45.9,201,46.1 M188.1,40.6c0.6,0.1,0.3-0.2,0.8-0.1C188.9,40.1,188.1,40.4,188.1,40.6
		 M185.8,47.4c0,0.1,0.2,0.2,0.1,0.3c0.2,0,0.5,0,0.7-0.1c-0.2-0.2-0.5,0.1-0.7-0.1C186.1,47.4,186.1,47.3,185.8,47.4 M185.7,40.2
		c0.7-0.1,0.1,0.5,0.8,0.4C186.4,40.4,186,39.8,185.7,40.2 M186,43.9c0.2,0,0.4,0,0.1-0.1c-0.2,0.1-0.5,0.1-0.4,0.3
		c0.2,0.1,0.4,0.1,0.6,0.1C186.4,43.9,186,44,186,43.9 M186.7,43.8c0.4,0,0.5-0.1,0.7-0.2c0.4,0,0.3,0,0.6,0.2
		c-0.2-0.2,0.6-0.2,0.6-0.1c-0.5-0.1-0.2,0.3,0.1,0.2c0-0.2,0.3-0.3,0.4-0.5c0.2,0,0.3,0.1,0.4,0.2c0,0.1,0.1,0.1,0.2,0.1l0.2,0
		l0.1,0h0.1c2.3,0.2,0.6,0.1,1.1,0.1h0c0.1-0.1,0.1-0.1,0.1-0.1l0,0h0c1.1,0.1-1.4-0.1-1.2-0.1l0,0l0,0l0,0c-0.1,0-0.2,0-0.2-0.1
		h0.2l0.1,0l0,0l0,0h0c-0.3,0,2.3,0.2,1.2,0.1v0h0c0.1,0,0.2,0.1,0.3,0.1c0-0.1,0-0.2-0.1-0.3l-0.1,0h0v0c1.2,0.1-1.6-0.2-1.3-0.1h0
		v0l0,0l0,0l-0.2,0c-0.2,0-0.5,0-0.7,0c0.1-0.1,0.3-0.1,0.5-0.2l0.3,0l0.2,0l0.1,0h0c2.8,0.3,0.8,0.1,1.4,0.1h0l0,0l0,0
		c0.3,0,0.6,0.1,0.9,0.3c0.5,0.1,1-0.3,1.3,0.1c0,0,0-0.1,0.2,0c0-0.1,0.1-0.1,0.2-0.1c-0.9-0.4-1.7-0.2-2.3-0.5
		c0,0-0.1,0.1-0.1,0.1h-0.1c-2.9-0.3-0.8-0.1-1.5-0.1h0l0,0l-0.1,0c-0.2,0-0.3,0-0.4,0.2c-0.3-0.5-1.9,0.1-2.4-0.2
		c0,0.1,0,0.2-0.1,0.2c-0.4-0.2-0.8,0-1.3-0.2c-0.1,0.3-0.4-0.1-0.7,0c0,0.1-0.2,0.1-0.1,0.3c0.8-0.1,0.5,0.7,1.1,0.5
		c-0.2-0.1,0.3-0.4,0.4-0.5c-0.1,0.3,0.5,0.1,0.6,0.3c-0.2,0-0.4,0-0.6,0.1c0.2,0,0.4,0,0.6,0.1C186.9,43.7,186.7,43.7,186.7,43.8
		 M184.6,47.3c0.3,0,0.1,0.2,0.4,0.2c0.3-0.2,1.1-0.4,0.8-0.6C185.2,47,185.3,47.4,184.6,47.3 M184.9,49.6c-0.7,0-0.4,0.4,0.1,0.4
		C185.1,49.7,184.7,49.8,184.9,49.6 M183.9,49.6c0.4,0,0.4-0.2,0.4-0.4C183.8,49.1,184.2,49.5,183.9,49.6 M183.7,46.8
		c0.7,0,1,0,1.1-0.2c-0.3-0.2-0.7,0.1-1.1,0V46.8z M183.2,48.1c-0.1,0.3,0.4,0.5,0.7,0.4C183.7,48.2,183.4,48.1,183.2,48.1
		 M183.2,49.7c0.2,0,0.5-0.2,0.1-0.2c-0.1,0.2-0.3,0.3-0.6,0.4c0.6-0.1,1,0.2,1.1-0.1C183.8,49.7,183.2,49.8,183.2,49.7 M182.5,47.5
		c0.2-0.2,0.5,0.1,0.9,0.1c-0.2-0.2-0.1-0.2,0.1-0.4C183,47.2,182.1,47.3,182.5,47.5 M181.8,43.9c0.5,0,0.5,0.3,1,0.4
		C182.5,44,182.3,43.6,181.8,43.9 M181.6,46.8c0.4,0.1,0.8,0,1.1-0.2C182.6,46.5,181.7,46.6,181.6,46.8 M182,49
		c0,0.3,0.3,0.2-0.4,0.2c0.2,0.4,0.6,0.5,1,0.4c-0.2,0-0.2-0.2,0-0.2c0.2,0.2,0.6,0.1,1,0c-0.1-0.2-0.2-0.2,0.1-0.4
		c-0.2,0-0.3-0.1-0.3-0.2C182.7,48.7,182.7,49.2,182,49 M181.5,46.5c0.4,0,0.6,0,0.6-0.2C181.7,46.2,181.4,46.3,181.5,46.5
		 M181.5,44.6c0.2-0.3-0.5-0.4-0.6-0.1L181.5,44.6z M181.2,49.1c0.2-0.2-0.3-0.6,0.4-0.7c-0.2,0-0.1-0.1,0-0.1
		c-0.3,0-0.3,0.1-0.6,0.1c0-0.1,0-0.1-0.1-0.1C181.2,48.5,180.6,48.9,181.2,49.1 M181.3,48.9c0.4,0,0.8,0,1.3-0.1
		c-0.1-0.1-0.5,0-0.4-0.2c0.4,0,0.7,0.2,0.8-0.1c-0.5,0-0.4,0-1-0.1C182,48.7,181.3,48.6,181.3,48.9 M180.8,40.5
		c0.3,0,1.6,0.2,1.7-0.1c-0.1-0.1-0.8,0.1-0.6-0.3c-0.4,0.1-0.8-0.2-1,0c0.2,0.1,0.6,0.1,0.6,0.3c-0.1,0-0.2,0.1-0.3,0.1
		C181.3,40.3,180.7,40.4,180.8,40.5 M180.6,43.6c0.2,0.1,0.4,0.1,0.6,0.1c-0.1-0.1-0.1-0.3-0.4-0.3
		C180.8,43.5,180.7,43.5,180.6,43.6 M180.6,42.5c0.6,0.3,1,0.5,1.5,0.2c-0.5,0.2-0.3-0.4,0-0.2c-0.2-0.1-0.4-0.1-0.6-0.1
		c0,0.1,0,0.2-0.1,0.2c0-0.1-0.2-0.1-0.3-0.2c0.5-0.1,1.3,0,1.4-0.3c0,0.1,0.2,0.1,0.3,0.2c-0.2,0-0.4,0-0.6,0.1
		c-0.1,0.3,0.4,0.7,1,0.5c-0.2-0.1-0.5-0.1-0.7-0.2c0-0.1-0.1-0.2-0.1-0.2c0.7-0.1,1.5-0.1,1.5-0.6c-0.2,0-0.6,0-0.7,0.1
		c0.2,0,0.3,0,0.3,0.1c-0.2-0.2-0.5,0.1-0.6-0.1c0-0.2,0.6-0.3,0-0.4c0,0.4-0.5,0.1-0.6-0.1c0,0.1-0.4,0-0.4,0.1
		c0.2,0,0.2,0.2,0,0.2c-0.6,0-1.1-0.1-1.6-0.2C180.6,42.1,181.4,42.5,180.6,42.5 M180.5,46.7c-0.2,0.1-0.2,0.3,0.1,0.4
		C180.9,46.9,180.9,46.8,180.5,46.7 M180.5,49.5c0-0.1,0.2-0.1,0.3-0.1c0.2,0,0.2,0.1,0.4,0.1c0-0.2-0.3-0.2-0.7-0.2
		C180.6,49.3,180.1,49.4,180.5,49.5 M180.2,44c0.1,0,0.3,0,0.4-0.1c0.3,0.2,0.6,0.3,1,0.2C181.7,43.9,180.6,43.7,180.2,44 M180.1,49
		c0.3,0,0.3,0.2,0.7,0.1c0-0.1-0.2-0.2-0.1-0.3C180.3,48.8,180.1,48.9,180.1,49 M179.9,43.6c0.1,0,0.3,0,0.4,0.1
		c-0.3-0.3,0.1-0.2,0.3-0.4c-0.2-0.1-0.4-0.1-0.6-0.1C180.1,43.4,180,43.6,179.9,43.6 M179,47c0.2-0.1,0.3,0.1,0.4,0.1
		c0.2-0.1,0.4-0.1,0.6-0.1c0.1-0.1,0.2-0.2,0.1-0.4c-0.6,0,0.1,0-1,0.3C179.2,46.8,178.9,46.9,179,47 M180.6,47.4
		c-0.3,0-1,0-0.9-0.1c0.1,0.1,0.3,0.2-0.2,0.3c0.1,0.2,0.4,0.1,0.6,0.1l-0.1-0.1v0v0c-0.8,0.2-0.2,0.1-0.4,0.1l0,0l0,0l0.2-0.1
		c0.4,0.5,0.3-0.3,0.8,0.2c0-0.4,0.7-0.1,0.9,0c-0.2-0.3,0.3-0.3,0.3-0.5c-0.5,0.1-0.8,0.1-0.6-0.2c-0.1-0.1-1-0.2-0.9,0.1
		c0.2,0,0.7-0.1,0.7,0.1C180.9,47.3,181,47.5,180.6,47.4 M180.6,49.5c0.1-0.1,0.3-0.3,0.5-0.3l0.3-0.2h0h0c-0.8,0.2,1.7-0.5-1.8,0.5
		h0h0l0.1,0l0.2,0c-0.2-0.3-0.2-0.1,0-0.3c-0.1-0.1-0.2-0.1-0.3,0l0,0h0c-1.2,0.3,1.7-0.5,1.4-0.4v0l0,0l-0.1,0.1
		c-0.1,0.1-0.2,0.1-0.2,0.1c-0.1,0.2,0.1,0.1,0.2,0.2c-0.2,0.1-0.3,0-0.5,0.1C180.6,49.3,180.5,49.4,180.6,49.5 M181.5,50.3
		c0.3-0.1,0.7-0.3,0.5-0.5C181.7,50,181.4,50.2,181.5,50.3 M175.4,45.1c0.2-0.2,0.7-0.3,0.6-0.5C175.8,44.7,175.2,45,175.4,45.1
		 M176.1,45.7c0.1-0.1,0.2-0.2,0-0.3c-0.4,0.2,0.1,0.4-0.5,0.6c0.4,0,0.8,0,1.1-0.1c-0.5-0.1-0.2-0.4,0.3-0.6
		c-0.1-0.3-0.5,0.3-0.6,0C176.3,45.4,176.4,45.7,176.1,45.7 M180.1,49.8c0.2,0.1-0.1,0.2,0.2,0.2c0.7-0.4-0.4-0.4-0.2-0.7
		c-0.4,0.2-0.1,0.3-0.6,0.5c0.3,0.2,0.1,0.3,0.4,0.5C180.5,50,179.8,50.2,180.1,49.8 M178.5,49.7c0.2-0.2,0.4-0.2,0.7-0.2
		c0.1-0.4-0.8,0.3-0.5-0.3l-0.4,0.3C178.4,49.7,178.6,49.5,178.5,49.7 M173.9,45.3c0-0.2,0.1-0.4,0.5-0.6c-0.1-0.1-0.2-0.2-0.3-0.2
		C174.1,44.8,173.5,45.2,173.9,45.3 M179,50.9c-0.1-0.3,0.2,0.2,0.3,0c-0.1-0.1,0-0.3-0.2-0.4c0.3,0,0.6-0.2,0.3-0.4
		c-0.5,0.4-0.3,0.5-1,0.6C178.7,50.8,178.8,50.9,179,50.9 M177.9,50.4c-0.1-0.1-0.2-0.6-0.4-0.2c0.1,0,0.2,0,0.2,0
		c-0.2,0.1-0.2,0.2-0.4,0.3c-0.1,0-0.1-0.1-0.2,0c-0.1,0.2,0.1,0.1,0.2,0.2L177.9,50.4z M175.5,50.4c0.4-0.3,0.8-0.3,0.8-0.6
		C175.9,49.9,175.4,50.2,175.5,50.4 M172,48.1c0.5-0.1,0.3-0.4,0.9-0.5C172.7,47.3,171.8,48,172,48.1 M174.5,50.9
		c0.2-0.2,0.6,0,0.6-0.2c-0.3,0.1-0.4-0.4-0.7-0.2C174.4,50.8,174.5,50.7,174.5,50.9 M176.8,52.4c0.4-0.3,0.1-0.5,0.1-0.8
		c-0.3,0.2-0.5,0-0.8,0.1c0.2,0.3-0.7,0.8-0.8,1.1c0.3-0.1,0.4,0.2,0.8,0.1c-0.2-0.2,0.5-0.5,0.5-0.7
		C176.8,52.2,176.8,52.2,176.8,52.4 M177,51.7c0.3,0,0.1,0.3,0.4,0.2c0.2-0.2,0.2-0.1,0.2-0.4c0.2,0.1,0.7-0.3,0.9-0.2
		C178.1,51.1,177.5,51.5,177,51.7 M174.2,52.7c0.1,0,0.2,0,0.2,0c0.2-0.2,0.3-0.7,0-0.7c0.1,0.2-0.5,0.4-0.3,0.1
		C173.4,52.6,174.6,52.3,174.2,52.7 M174.3,53c0.4-0.1-0.3,0.4,0.3,0.3c-0.1-0.2,0.5-0.5,0.2-0.7C174.7,53,174.4,52.8,174.3,53
		 M174.6,53.6c0.5-0.3,0.4,0.3,1.1-0.2c0.1-0.3-0.4-0.2-0.6-0.2C174.8,53.3,174.6,53.4,174.6,53.6 M170.4,49.7
		c0.3-0.4,0.9-0.4,1-0.6c-0.2,0.1-0.1-0.1-0.2-0.2l-0.8,0.5c-0.3,0-0.1-0.2-0.5-0.1c0.2,0.1-0.3,0.3-0.2,0.4
		C170,49.6,170.2,49.7,170.4,49.7 M174.1,54.1c0.2-0.1,0.2,0.1,0.3,0.2c0.2-0.1,0.3-0.2,0.4-0.3C174.7,53.7,174,54.1,174.1,54.1
		 M173.7,53.6c-0.1,0.3,0,0.4,0.3,0.3c0.2-0.2,0.4-0.3,0.3-0.4c-0.1,0.1-0.3,0.2-0.4,0.2C174.1,53.5,173.8,53.5,173.7,53.6
		 M173.3,54.4c0-0.2,0.4-0.3,0-0.5C173.1,54.1,173,54.5,173.3,54.4 M172.5,54.7c-0.5,0.2,0.2,0.6,0.4,0.3
		C172.7,54.8,172.5,55,172.5,54.7 M171.9,54.6c0.4-0.2-0.2-0.3,0.2-0.5c-0.1,0-0.1,0.1-0.2,0c-0.1,0.1-0.3,0.2-0.3,0.3
		C172,54.2,171.6,54.6,171.9,54.6 M170.6,56.2c0.2,0.3,0.5,0,0.9-0.2c-0.2-0.2-0.4-0.1-0.4-0.4c-0.7,0.5,0.1,0.3,0,0.5
		C170.9,56.3,170.8,56,170.6,56.2 M165.3,52c0.3,0.1-0.2,0.4,0.2,0.4l0.5-0.6C165.7,51.9,165.5,52,165.3,52 M165.4,51.6
		c0.1,0.1,0.2,0.1,0.2,0c-0.2-0.2-0.5,0-0.7,0c0.1-0.2,0.4-0.4,0.3-0.6c-0.4,0.1-0.7,0.2-1,0.4c0.2,0.3,0.3,0.2,0.7,0.5
		C165.1,51.9,165.2,51.8,165.4,51.6 M164.6,52.3c0.1,0.1,0.2,0.2,0.4,0l-0.2-0.2c-0.1,0.1-0.6,0.3-0.5,0.4L164.6,52.3z M165.1,53.8
		c0.3-0.3,0.7-0.6,0.6-0.8c-0.4,0.3-0.4,0.6-0.8,0.9c0.4-0.1,0.1,0.2,0.3,0.3c0.3-0.3,1-0.3,0.7-0.5c-0.3-0.1-0.2,0.2-0.4,0.3
		C165.3,53.8,165.2,53.9,165.1,53.8 M166.5,55.7c0.2,0.1,0.5,0.1,0.7,0l-0.2-0.2C166.8,55.6,166.7,55.7,166.5,55.7 M166.2,55.7
		c0.1-0.1,0.2-0.1,0.4-0.1c-0.2-0.2-0.1-0.4-0.5-0.3C166.4,55.4,166,55.6,166.2,55.7 M164.1,54.6c0.1-0.1,0.6-0.1,0.5-0.2
		c-0.4,0.2,0-0.2-0.2-0.2C163.9,54.3,164.1,54.4,164.1,54.6 M165.7,56.3c0.1-0.1,0.2,0,0.3,0.1c0.2-0.2,0.5-0.3,0.8-0.4
		c0.1-0.2-0.3-0.1-0.5-0.1c0.1,0.1,0.2,0.2,0,0.3c-0.1-0.1,0-0.1,0-0.2C166.1,56.2,165.7,56.1,165.7,56.3 M168.7,59.4
		c0.3-0.2,0.6-0.4,0.9-0.5c0.2,0.2,0.3,0.2,0.1,0.5c0.2-0.3,0.9-0.3,0.8-0.6c-0.6,0.3-0.5,0.1-1.1,0c0.3-0.2,0.4-0.1,0.7-0.2
		c-0.3-0.3-0.9,0.2-1.3,0.3c0,0.1,0.2,0.3,0.1,0.4c-0.1-0.1-0.2-0.1-0.3,0L168.7,59.4z M162.6,51.8c-0.4,0.2-0.5,0.4-0.3,0.6
		C162.7,52.1,162.5,51.9,162.6,51.8 M161.9,51.8c0,0.1,0,0.2-0.2,0.3c0.1,0.1,0.2,0.2,0.3,0.2c0-0.1,0.1-0.1,0.2-0.1
		c-0.1-0.1-0.1-0.1-0.1-0.2c-0.5,0.3,0.1-0.2-0.3-0.3c-0.5,0.5-1.3,0.4-1.3,0.8C161.1,52.3,161.5,51.8,161.9,51.8 M162.6,54.4
		c0.4-0.2,0.1-0.6-0.2-0.6C162.6,54,162.4,54.2,162.6,54.4 M161,53c0.1,0.2,0.4,0,0.5,0.3C162,52.9,161.3,52.7,161,53 M161.8,55
		c0.3-0.2,0.5-0.3,0.3-0.4C161.7,54.7,161.6,54.8,161.8,55 M158,51.6c0.4-0.2,0.8-0.4,1.2-0.8c0.1,0,0.2,0,0.2,0
		c0.2,0.1,0,0.6,0.5,0.3c-0.6,0,0.3-0.7-0.3-0.7c0,0,0,0.1-0.1,0.1c0.1-0.1,0-0.2-0.1-0.1C159.2,50.9,158.2,51.1,158,51.6
		 M159.9,53.8c-0.4,0-0.1-0.3-0.5-0.3c-0.1,0.2,0.2,0.3,0.1,0.5L159.9,53.8z M158.5,53.2c0.5-0.3,0.8-0.2,1.1-0.5
		c-0.3-0.1-0.8,0.2-1.1,0.2C158.7,52.9,158.4,53.1,158.5,53.2 M158.2,53.7c-0.1-0.2,0.3,0,0.4-0.3l-0.2-0.2
		C158.2,53.4,157.8,53.9,158.2,53.7 M157.2,53.7c0.2-0.2,0.7,0,0.7-0.2c-0.3,0.1-0.2-0.3,0.1-0.2c-0.1-0.1-0.2-0.2-0.3-0.1
		c0.1,0.2-0.3,0-0.5,0.2C157.1,53.4,157.3,53.6,157.2,53.7 M160.4,56.8c0.6-0.3,1.4-0.8,1.7-0.8c-0.1-0.1-0.2-0.2-0.3-0.1
		c-0.3,0.4-0.1,0.2-0.6,0.3C161.3,56.3,160.4,56.6,160.4,56.8 M167.4,60c-0.6,0-0.5,0.3-0.8,0.6c-0.4,0,0-0.2-0.2-0.4
		c-0.5,0.2-0.2,0.3-0.4,0.5c-0.1-0.1-0.1-0.2-0.3-0.1c-0.1,0.1,0.2,0.2,0,0.4c-0.3,0.2-0.4,0-0.8,0.3c0,0.1,0,0.2,0.2,0.3
		c0.2-0.1,0.3-0.1,0.5-0.2c-0.3-0.1,0.3-0.5,0.3-0.2c0.5-0.2,0-0.4,0.3-0.6c0.2,0.1-0.1,0.2,0.2,0.2c0.5-0.3,1-0.6,1.5-1
		c0-0.2-0.5,0-0.2-0.2c0.4-0.4,0.3,0.3,0.7,0c-0.2-0.1-0.4-0.3-0.7-0.1c0,0.3-0.5,0.2-0.7,0.2C167,60,167.4,59.9,167.4,60 M164.3,62
		c0.1,0,0.2,0,0.2,0c0.2-0.1,0.3-0.3,0.3-0.4C164.6,61.7,164.2,61.7,164.3,62 M156.5,54.7c0.9-0.5,1-0.6-0.2-0.2
		C156.4,54.6,156.3,54.8,156.5,54.7 M160.1,58.2c-0.2-0.2-0.6-0.1,0-0.4c-0.2-0.2-0.6,0.1-0.9,0.3C159.6,58.1,159.8,58.3,160.1,58.2
		 M156.2,54.3c-0.2-0.1-0.2-0.2,0-0.4c0.1-0.1,0.3-0.2,0.3-0.2c-0.2,0.1-0.3,0.1-0.5,0.2c0.4,0.1-0.9,0.4-0.9,0.7
		c0.1-0.1,0.3-0.2,0.4-0.1c0.1,0.1,0.2,0.2,0.3,0.2C155.6,54.4,156.1,54.4,156.2,54.3 M158.6,58c0.3-0.2,0.8,0,0.7-0.4
		c-0.4,0.4-0.5,0-0.8,0.1C158.5,57.8,158.4,57.9,158.6,58 M158.9,59.5c0.2-0.1,0.3,0,0.5-0.2c-0.1-0.1-0.2-0.2-0.3-0.2
		C159.2,59.2,158.8,59.4,158.9,59.5 M155.3,55.2C155.3,55.2,155.3,55.1,155.3,55.2c-0.2,0.2,0.6,0.7-0.1,0.8c0.1,0.2,0.3,0,0.5,0
		c0.1-0.1-0.2-0.2,0.2-0.4c-0.1-0.2-0.6-0.1,0-0.4C155.7,55,155.4,55.3,155.3,55.2 M158.6,59.4c-0.2-0.3,0.9-0.7,0.9-1
		c-0.4,0-0.6,0.6-0.9,0.5C158.6,59,158.3,59.5,158.6,59.4 M157.6,58.7c0.3-0.2,0.4-0.1,0.6-0.3c-0.1-0.1,0.1-0.2,0.1-0.3
		C158,58.4,157.6,58.4,157.6,58.7 M155.2,56.9c0.8-0.5,0.1-0.4-0.3-0.3C155,56.8,155.3,56.6,155.2,56.9 M161.8,63.3
		c0.1,0.3,0.6-0.1,0.4,0.2l0.9-0.5c-0.2-0.1,0.1-0.2,0-0.4c-0.4,0.4-0.1,0.4-0.7,0.7c-0.1-0.1,0.2-0.2,0-0.4
		C162,63.2,161.9,63.1,161.8,63.3 M152.7,54.7c0.2,0,0.8-0.2,0.8-0.4C153.4,54.3,152.7,54.6,152.7,54.7 M155.9,57.7
		c0.1-0.2,0.6-0.8,0.3-0.7C156,57.3,155.6,57.5,155.9,57.7 M153.9,56c0.6-0.6,0.3-0.5,0.5-1C153.9,55.4,153.9,55.7,153.9,56
		 M155.1,57.4c0.6-0.4,0.5-0.4,0.9-0.5c-0.2-0.3,0.6-0.4,0.4-0.6C156.1,56.5,155,57,155.1,57.4 M153,56c0.1-0.1,0.2,0,0.3,0
		c-0.1-0.1,0.2-0.2,0.3-0.2c-0.2-0.2-0.4-0.3-0.6-0.4l0.3-0.2c-0.1-0.1-0.1-0.2-0.1-0.3c-0.2,0.1-0.3,0.1-0.4,0.1
		c0.3,0.1,0.4,0.2-0.1,0.4c0.2,0.2,0.4,0.2,0.6,0.3C153.4,55.8,152.7,56,153,56 M154.4,57.5c0.2-0.1,0.3,0,0.4-0.1
		c0-0.3-0.4-0.5-0.8-0.4C154,57.3,154.6,57,154.4,57.5 M156.5,60.1c0.5-0.2,0.4-0.6,0-0.4C156.5,59.8,156.4,60,156.5,60.1
		 M152.9,57.4c0.4-0.2,0.7-0.6,0.3-0.6C153.3,57,152.8,57.2,152.9,57.4 M154.1,58.5c0-0.1,0-0.2,0.1-0.2c0.1-0.1,0.2,0,0.3-0.1
		c-0.1-0.1,0.2-0.4-0.1-0.3C154.3,58,153.7,58.5,154.1,58.5 M155.8,60.1L155.8,60.1L155.8,60.1L155.8,60.1c0.4-0.4-0.7,0.6-0.6,0.5
		v0l0,0l0,0.1c0,0.1,0.1,0.1,0.3,0.1c1-1,0.4-0.5,0.4-0.9L155.8,60.1z M146.6,58c0.1-0.2,0.3-0.1,0.5,0c0.1-0.1,0.1-0.2,0.1-0.3
		l0-0.1l0,0c1.2-1.1-1.2,3.3,4-1.9v-0.1l-0.1,0.1l0,0h0c0.6-0.6-6.5,4.2-4.1,1.9l0,0l0,0l-0.1,0.1l-0.2,0.1
		C146.6,57.9,146.5,57.9,146.6,58 M147.5,58.6c0.2-0.1,0.3-0.3,0.2-0.5c-0.2,0.3,0-0.2-0.2-0.2C147.2,58.2,147.4,58.4,147.5,58.6
		 M150,59.7c0.3-0.3,0.4-0.7,0-0.6c0.1,0.1,0,0.3-0.1,0.5c-0.1,0-0.2-0.1-0.2,0L150,59.7z M150.6,60c0.1-0.4,0.4-0.4,0.2-0.7
		c-0.1,0.2-0.2,0.3-0.4,0.5c0,0,0.1,0,0,0.1L150.6,60z M153,60.9c0-0.3,0.4-0.4,0.2-0.6c-0.3,0.2-0.3,0.5-0.3,0.7
		c0.1,0,0.3,0.1,0.4,0L153,60.9z M146.7,58.9c0.1,0.1,0.3,0.1,0.4,0c0.1-0.2,0.2-0.4,0-0.5C146.9,58.8,146.9,58.7,146.7,58.9
		 M161.9,64.5c0.2-0.2,0.3-0.6,0.1-0.8c-0.3,0.4-0.1,0.4,0,0.6C161.9,64.3,161.9,64.4,161.9,64.5 M150.7,60.9
		c0.2-0.4,0.5-0.8,0.8-0.9c-0.4-0.2-0.6,0.7-1,0.7C150.6,60.7,150.7,60.8,150.7,60.9 M149.3,60c-0.5-0.2-1.1-0.3-1.7-0.3L149.3,60z
		 M155.2,62.7c0.2-0.1,0.6-0.8,0.1-0.5C155.6,62.3,154.7,62.6,155.2,62.7 M161,65.5C161.1,65.5,161.2,65.4,161,65.5
		c-0.1,0.2-0.3-0.1-0.4,0.2c0.3,0,0.2,0.2,0.4,0.3C161.3,65.7,161,65.7,161,65.5 M146,60.6c-0.1-0.4,0.8-0.6,0.4-0.9
		c-0.1,0.5-0.2,0.2-0.2-0.1c-0.3,0.3-0.2,0.6-0.6,0.7C145.7,60.5,145.9,60.6,146,60.6 M146.8,61.1c0.1-0.2,0.3-0.2,0.5-0.4
		C147.1,60.5,146.7,61,146.8,61.1 M160.6,66.3c0,0.1,0.2,0.2,0.3,0.2c0.1,0,0.1-0.1,0.2-0.1C160.9,66.2,160.8,66,160.6,66.3
		 M142.9,66.7c0-0.3,0.2-0.3,0.2-0.6C142.7,65.9,142.7,66.7,142.9,66.7 M142.2,69.9c0.1-0.3,0.3-0.3,0.4-0.5
		C142.4,69.4,142,69.7,142.2,69.9 M160.6,73.3c-0.2-0.3,0.1-0.5,0-0.7c-0.1,0.2-0.2,0.4-0.2,0.6L160.6,73.3z M160.1,75.1
		c0.4-0.1,0.6-1,1-0.4l0-0.4c-0.4-0.1-0.4,0.4-0.8,0.2C160.3,74.7,160.2,74.9,160.1,75.1 M161.5,75.3c0.1-0.4,0.2,0,0.5-0.1
		c0-0.4-0.4-0.4-0.6-0.4C161.6,74.8,161.3,75.3,161.5,75.3 M160.9,76c0.2,0,0.4-0.1,0.5-0.3c-0.4,0-0.2-0.3-0.1-0.5
		c-0.4,0-0.4,0.3-0.7,0.4c0.1,0,0.1,0.2,0.2,0.2C160.8,75.3,161.2,75.9,160.9,76 M161.5,76c0.3,0,0.4-0.3,0.5-0.5
		c-0.1,0-0.1-0.2-0.3-0.2C161.6,75.5,161.6,75.8,161.5,76 M160.8,76.2c0,0.2-0.8-0.2-0.5,0.3C160.4,76,161,76.9,160.8,76.2
		 M160.9,78.1c0.1-0.5,0.3-0.4,0.5-0.1c0-0.3,0.3-0.3,0.1-0.5c-0.2,0-0.3,0.2-0.6,0.1C161,77.8,160.6,78,160.9,78.1 M161.3,75.8
		c-0.2,0-0.6-0.5-0.6-0.2c0.1,0,0.2,0.2,0.3,0.4C161.2,75.8,161.3,76,161.3,75.8 M165.3,81.2c-0.2-0.5-0.5-0.1-0.6,0.1
		C164.9,81.1,165.1,81.3,165.3,81.2 M165.4,81.9c0.1-0.2,0.7-0.5,0.1-0.6c0.4,0.6-0.3,0.2-0.5,0.3C165.2,81.6,165.3,81.9,165.4,81.9
		 M166.3,81.7c-0.2,0-0.1-0.4-0.4-0.3c0.3,0.3-0.2,0.2,0,0.5C166.1,81.6,166.5,81.9,166.3,81.7 M166,84.3c-0.4-0.3-0.2-0.7-0.6-0.7
		C165.6,83.8,165.7,84.4,166,84.3 M168.4,85.3c0.1-0.1,0.4-0.2,0.4-0.4c-0.5-0.1-0.5-0.7-0.9-1.1c-0.4,0.3-0.5-0.3-0.8-0.2
		c0.4,0.3,0,0.2,0.2,0.6c0.2-0.3,0.6,0,0.9,0.2C168.1,84.6,168.3,85,168.4,85.3 M170.8,89.1c0.6,0.2-0.3-1.2-0.5-0.5
		c0.2,0.1,0.4-0.1,0.6,0.2L170.8,89.1z M170.4,89.2c0.2,0.4-0.4-0.1-0.2,0.2c0.2,0,0.3,0.2,0.3,0.4C171,89.8,170.6,89.2,170.4,89.2
		 M167.2,86.8c-0.1,0.1-0.8-0.1-0.5,0.2C166.8,86.9,167.5,87.1,167.2,86.8 M170.9,87.4c-0.4-0.2-0.4,0.1-0.7,0
		C170.3,87.6,170.6,87.6,170.9,87.4C170.8,87.4,170.8,87.4,170.9,87.4 M182.3,92.3c-0.2-0.1-0.5-0.5-0.8-0.2c0.4,0,0.2,0.2,0.3,0.3
		C182,92.4,182.2,92.4,182.3,92.3 M184.4,93.2c-0.3-0.2-0.8-0.3-0.7-0.5c0.2,0.1,0.2-0.2,0-0.1c-0.1,0.3-0.6-0.2-0.7,0
		C183.4,92.8,184,93.3,184.4,93.2 M187.2,94.9c-0.2,0-0.3,0.3,0.1,0.4C187.4,95.2,187.5,95,187.2,94.9 M188.3,94
		c0.8,0.3,0.9-0.2,0.3-0.3C188.4,93.7,188.3,93.8,188.3,94 M188.8,95.3c0.1-0.1,0.1-0.3,0-0.4l-0.5-0.1
		C188,95.1,188.6,95.2,188.8,95.3 M189.5,94.3c-0.3-0.1-0.3,0-0.5,0c0-0.1-0.2-0.1-0.4-0.2c-0.2,0-0.2,0.2-0.3,0.4
		c0.4,0.1,0.5,0.4,0.8,0.2c-0.2-0.2-0.7,0-0.6-0.4C189,94.5,189.3,94.5,189.5,94.3 M190.1,94.3c-0.3-0.2-0.6-0.3-0.9-0.2
		C189.6,94.1,189.9,94.4,190.1,94.3 M188.3,99.9c0.1-0.1,0.1-0.3-0.2-0.3c0.2,0.5-0.4,0-0.6,0.1C187.7,99.7,188,99.8,188.3,99.9
		 M190.2,96c0.3-0.2-0.2-0.5-0.5-0.3C189.9,95.8,189.7,96,190.2,96 M189.4,98c-0.2,0-0.1-0.1-0.2-0.2c-0.1,0.1-0.3,0-0.4-0.1
		c-0.1,0.1-0.1,0.3,0.2,0.3C189,97.8,189.7,98.2,189.4,98 M190.7,98.5c0-0.2-0.4-0.4-0.7-0.5C189.8,98.2,190.4,98.3,190.7,98.5
		 M189.5,94.8c-0.7,0.1-0.4-0.3-0.8-0.3c-0.1,0.1,0.1,0.4,0.3,0.5C188.9,94.9,189.7,95,189.5,94.8 M190.8,94.2
		c-0.2,0-0.5,0.1-0.7,0.2c0,0.2,0.1,0.3,0.4,0.3C190.6,94.5,190.7,94.4,190.8,94.2 M202.5,107.8c0,0.2-0.3,0-0.5,0.1
		c0,0.2,0.3,0.1,0.6,0.1C202.6,108,202.8,107.9,202.5,107.8 M202,105c-0.3-0.2-1.4,0.1-0.8,0.3C201.2,104.9,201.9,105.2,202,105
		 M202.2,103.6c-0.3,0.2-0.6-0.1-0.7,0.1c0.8,0.2-0.6,0.7,0,1.1C201.8,104.5,201.9,104,202.2,103.6 M200.2,96.5
		c0.6,0,0.6-0.4,0.2-0.4c0.3,0.2-0.5,0.1-0.4,0.3C200.1,96.4,200.2,96.5,200.2,96.5 M200,93.6c-0.2,0.1-0.5,0.1-0.7,0
		c0,0.2,0.1,0.3,0.4,0.3C199.5,93.7,200.3,93.8,200,93.6 M200.8,95.5c-0.5,0.1-1-0.2-1.4,0.1c0.3,0.1,0.6,0.2,0.9,0.1
		C200.5,95.7,200.6,95.6,200.8,95.5 M203.3,104.8c-0.3,0.3-0.7,0.4-1.2,0.5c-0.1,0.3,0.5,0,0.7,0c0.2-0.5,0.4-0.1,0.7-0.1
		C203.3,105,203.8,104.8,203.3,104.8 M201,95.6c0.5-0.1,0.9,0.2,1.1-0.1C201.8,95.4,201.1,95.2,201,95.6 M202.1,94.5
		c-0.3,0.1-0.7,0.3-0.8,0.1c0.2-0.1,0.3-0.3,0.5-0.4c-0.6,0.2-0.8,0.1-0.8-0.2c-0.6,0.2-0.8-0.2-1.1,0c0,0.2,0.3,0.2,0.3,0.4
		c0.3,0,0.4-0.2,0.7-0.2l0.4,0.2c-0.6,0-0.6,0.2-0.9,0.4c0.5,0,0.4,0.2,0.4,0.5c0.6,0,0.2-0.2,0.9,0.1c-0.1-0.1,0.5-0.1,0.7-0.2
		c-0.1-0.1,0.3-0.3-0.1-0.3c0,0.1-0.3,0.1-0.4,0.1c-0.1,0.2,0.5,0.2,0.1,0.3c0-0.1-0.5,0-0.5-0.1C201.5,94.9,201.8,94.7,202.1,94.5
		 M204.6,97.8c-0.3,0.1-0.7-0.2-0.9,0c0.9,0-0.5,0.2-0.1,0.2c0.4-0.1,0.3,0.1,0.6,0.1C204.1,97.9,204.6,98,204.6,97.8 M206.3,101.5
		c0-0.2-0.1-0.3-0.4-0.2c-0.1,0.1-0.8,0.3-0.3,0.4c0.1-0.2,0.3-0.3,0.5-0.3C206.2,101.4,206.2,101.5,206.3,101.5 M205.2,97.4
		c-0.4,0.1-0.9,0-1.3-0.1c0,0.2,0.3,0.2,0.3,0.4C204.4,97.3,205.1,97.7,205.2,97.4 M204,95.1c-0.1,0.1-0.5,0.1-0.6,0.3
		c0.4,0,0.8,0,1.2-0.2c-0.2-0.6-1.7,0-2.3,0.1C202.8,95.5,203.7,95,204,95.1 M206.5,97.9c-0.4,0-0.7,0.1-1.1,0.3
		C205.8,98.3,206.2,98.2,206.5,97.9 M180.1,50.6c0.4,0,0.5-0.1,0.4-0.3C180.1,50.3,180,50.4,180.1,50.6 M174.7,46
		c-0.7,0.3,0-0.4-0.4-0.6l-0.3,0.2c0.6,0.2-0.1,0.2-0.2,0.5c0.2-0.1,0.4-0.2,0.5-0.2c-0.6,0.3,0,0.2,0,0.5c0.1-0.1,0.4-0.2,0.4-0.3
		C173.7,46.6,175,45.9,174.7,46 M162.9,52.3c0.4-0.3,0.3-0.6,0.5-0.9c-0.2,0.1-0.6-0.1-0.6,0.2C163,51.6,162.8,52.1,162.9,52.3
		 M162.9,51c-0.3,0.2-0.4,0.4-0.4,0.6c0.1,0,0.1-0.1,0.2,0c0.1-0.1,0.3-0.2,0.3-0.3C162.3,51.5,163.2,51,162.9,51 M144,61
		c-0.2,0.2-0.5,0.5-0.1,0.6C144,61.3,144.2,61.1,144,61 M172.6,111c-0.7,0.1-1.4,0.2-2.2,0.2c0.4,0.1,0.9,0,1.3-0.1
		c0.3,0.4-1.4,0.1-0.9-0.2l-0.5-0.2c-0.3-0.1-0.2,0.4-0.7,0c0.1-0.1,0.5,0.7,0.3,0.5c-1-0.2,0.2,0-0.7-0.1c-0.6-0.5-1.5,0.2-2.6-0.4
		c0.1,0,0,0-0.1-0.1c-0.2-0.1-0.1-0.1-0.1-0.1c-1.2-0.6-0.8,0.5-2.1-0.1c-0.4-0.1-0.7-0.3-0.9-0.2c0.1-0.3-0.2-0.1-0.3-0.1
		c-0.4-0.2-0.5-0.1-1.1-0.4l-0.8-0.4l-0.5-0.3l-0.3-0.3l-0.5-0.6c1.1,0.9-6.3-4.5-7.9-7.1l-0.8-1l-0.2-0.5l-0.1-0.3l-0.3-0.9
		l0.4,1.3l-0.9-2.9l-0.6-0.9c-0.3-0.5-0.4-1.2-0.6-1.7c-0.2-0.3-0.3-0.8-0.1-1.1c-0.3-0.2-0.6-0.5-0.7-0.8l0.2-0.1
		c-0.5-0.5-0.9-1-0.8-1.5c-0.5-0.4-0.7-1-0.6-1.7c-0.1-0.2-0.2,0.1-0.2,0.2c-0.7-0.5,0-0.3-0.3-1c-0.3-0.2-1-0.7-0.6-1
		c0.1,0.4,0.3,0.7,0.5,0.4c0-0.3-0.5-0.3-0.3-0.5c-0.1-0.1-0.3,0-0.4,0c-0.4-0.6-0.9-1-0.7-1.4c-0.2-0.2-0.3,0.3-0.5-0.3
		c0.4-0.1,0.1-0.5-0.1-0.8c0.1,0,0.1-0.1,0.1-0.2c0.1,0,0.3,0.1,0.3,0.2c0.2,0,0.2-0.2,0.1-0.4c-0.2-0.1-0.4-0.1-0.5-0.1
		c-0.1-0.3-0.2-0.6-0.1-0.9c-0.2-0.3-0.1,0.1-0.3,0.1c-0.2-0.5-0.5-1-0.8-1.5l-0.2-0.3l-0.1-0.2l0-0.1l0,0l0,0
		c-0.4-1.7,0.8,3.8-0.8-3.8v0c0-0.2,0.1-0.4,0.3-0.6c-0.1-0.3-0.3,0.1-0.4-0.1c0.1-0.5,0.4-0.5,0.6-0.2c0.1,0,0-0.1,0-0.3l-0.5,0
		c0.5-0.9-0.5-2-0.6-3c0.3,0.3,0.4-0.1,0.4-0.6l0.4,0c-0.3-0.4,0.2-0.5,0.3-0.9c-0.2-0.3-0.6,0.5-0.8,0.2c0.2-0.2,0.3-0.4,0.3-0.6
		c0-0.2-0.1,0-0.3,0c0-0.3,0.2-0.4,0.2-0.7c0.1,0,0.1,0.2,0.3,0.2c0-0.1-0.2-0.4,0-0.4c0-0.2-0.3-0.1-0.2-0.4c0.3-0.1,0.2,0,0.5-0.1
		c0-0.2-0.4-0.7-0.4-0.2c-0.1-0.1-0.1-0.2-0.1-0.4c0.3,0.1,0.4-0.2,0.5,0c0-0.2,0-0.5,0.2-0.4c0-0.4-0.4-1.2-0.2-1.4
		c0-0.1,0.1-0.3,0.1-0.2c0-0.1,0-0.1,0.1-0.1c-0.2-0.1,0-0.6,0.1-1.1c-0.2,0-0.1,0.4-0.4,0.3c0-0.5,0.3-0.3,0.3-0.7
		c-0.1,0.1-0.1,0-0.2,0l0,0l0,0l0,0v0c0.4-1.2-0.9,2.7,0.9-2.7v0l0.1-0.1c0.1-0.2,0.3-0.3,0.5-0.4c0.1-0.3-0.3,0.1-0.3-0.2
		c0.2-0.5,0.7-0.8,1.2-0.9c-0.1,0.3-0.3,0.2-0.5,0.2c0,0.1,0,0.2,0.1,0.3c0.1-0.1,0.1-0.3,0.5-0.1c0.3-0.5,0.1-0.5,0-0.6
		c0.1,0,0.8-0.4,0.4-0.6c0.3-0.3,0.2,0,0.3,0.1c0.1,0,0.2-0.5,0.3-0.6c-0.1,0-0.1,0.1-0.2,0.2c0-0.3,0.7-0.9,0.1-1
		c0.2-0.3,0.4,0,0.6-0.3c0.1,0.1,0,0.3,0.2,0.4c-0.3,0.3-0.2,0.3-0.4,0.7c0.3,0,0.4-0.8,0.7-0.8c0.2-0.4-0.4,0-0.4-0.4
		c0.2-0.2,0.3-0.3,0.3-0.4l0-0.2l0-0.1l0,0v0c5.6-5.5,3-0.8,4.2-2.1l0,0v0l0,0l0.2-0.1c0,0.1,0,0.1-0.1,0.2l0,0h0v0
		c2.5-2.4-4.8,2.6-4.2,2l0,0l0,0.1l0,0.1l0.1-0.1l0,0l0,0l0,0c1.2-1.2-1.3,3.4,4.1-2l0,0h0l0.1,0l0.2-0.2c0.1-0.1,0.1-0.3,0-0.3
		c0.4-0.2-0.1,0.3,0.3,0.1c0.1,0.1-0.3,0.2-0.2,0.3c0.3-0.1,0.6-0.3,0.9-0.5c-0.2-0.1-0.6,0.3-0.7,0.1c0.8-0.2,0.8-0.5,1.4-0.5
		c0.1-0.1,0.2-0.3,0.2-0.5c0.2,0,1.2-0.2,0.8-0.5c0.5-0.4,0.7-0.2,1.2-0.4c0.3-0.2-0.3-0.1-0.3-0.3l0.4-0.3c0.1,0.7,1.4-0.9,2.2-0.9
		c0-0.1,0.1-0.2,0.1-0.3c0.4,0,0.6-0.4,0.8-0.6c0,0.1,0,0.2,0.1,0.3c0.5-0.6,1.2-1.1,2-1.4c0,0.2-0.5,0.6-0.8,0.6
		c0.1,0,0.6,0.6,0.7,0.4c0.1,0.1,0.2,0.3,0.3,0.5c-0.2,0.1-0.3,0.1-0.3,0c-0.3,0.2,0.5,0.3,0,0.5c0.3,0,0.3-0.1,0.6-0.3
		c0.3,0.4-1.1,0.7-1.4,0.7c-0.2,0.3,0.3,0.3,0.1,0.6c1.2-0.3,1.6-1.2,2.6-1.3c0.1-0.1-0.1,0-0.2-0.2c0.4-0.1,0.4-0.4,0.6-0.3
		c0,0.3-0.3,0.3,0,0.5c0.4-0.2-0.1-0.3,0.4-0.5c0.5,0,0.3,0.4,0.8-0.1c0.1,0.2-0.4,0.4-0.4,0.6c0.4-0.3,0.6,0,1.2-0.4
		c-0.3,0.5-1.9,1-0.8,1.5c0.1,0,0.3-0.1,0.3,0c0.3-0.2-0.4,0,0.1-0.2c-0.2-0.1-0.4,0.1-0.5-0.1c0.7-0.5,1.2-1.4,2-1
		c-0.7,0.1,0.6,0.1-0.2,0.5c0.4,0.3,1.2,0.1,1,0.5c0.2,0,1.2-0.7,1.1-1c0.8-0.3,0.1,0.2,1-0.4c-0.5,0.2-0.4-0.1-0.8-0.2
		c0.6-0.4,0.4,0.2,0.7,0.1c0.2-0.2,0.3-0.4,0.6-0.5c0.1-0.1,0-0.2,0.1-0.2c-0.5-0.1-0.4,0.5-0.8,0.5c-0.2-0.1,0-0.3,0.2-0.3
		c0-0.2-0.8,0.1-0.3-0.3c-0.1-0.1-0.3,0.1-0.5,0.2c0-0.5,1-0.6,0.8-0.9c0.2,0.1,0.3,0.5,0.7,0.1c0.1,0.1,0.1,0.2-0.2,0.4
		c0.3,0,0.6-0.1,0.9-0.4c0.2,0,0.4,0.1,0.6,0.3c0.5-0.2-0.2-0.3,0.3-0.4c-0.1,0.5,0.5-0.2,0.7,0.1c0.3-0.2,0.6-0.4,0.9-0.5
		c0.1,0.2,0,0.3-0.4,0.3c-0.3,0.3,0.3,0,0.4,0.2c-0.8,0.2-1,0.6-1.7,1c0.3-0.4,0-0.5-0.4,0c-0.1,0.3-0.1,0.3-0.8,0.7
		c-0.2,0.2,0.5,0.1-0.1,0.4c0.1-0.3-0.7,0.1-0.9-0.2c-0.2,0-0.5,0.1-0.7,0.2c-0.1,0.1-0.1,0.2-0.1,0.2c0.1,0.1,0.6-0.2,0.3-0.3
		c0.3,0,0.7-0.2,0.8,0.1l-0.4,0.3c-0.1-0.1,0-0.2-0.1-0.2c-0.4,0.1-0.1,0.2,0,0.4c-0.2,0.2-0.5-0.1-0.5,0.2c-0.4,0-0.2-0.5-0.7-0.2
		c-0.4,0.2-0.1,0.4-0.5,0.4c-0.1,0.3,0.1,0.7,0.4,0.9c0.2-0.1,0.3-0.1,0.7-0.2l0.3,0.3c-0.8,0.6-0.9,0.2-1.3,0.7
		c-0.3-0.2,0-0.4,0.3-0.4c0-0.2-0.6-0.1-0.3-0.3c-0.1-0.2-0.5,0.3-0.5,0c-0.3,0.3,0.3,0.1,0.3,0.3c-0.6,0.1,0.3,0.4-0.3,0.6
		c0.1,0,0.2,0,0.2,0c0.3,0.1,0-0.2,0.4-0.3c-0.2,0.9-1.8,0.5-2.2,1.2c0.2,0,0.5,0,0.4,0.2c0.5-0.2-0.2-0.3,0.3-0.4
		c0,0.4,0.2,0.4,0,0.9c-0.2,0.1-0.2-0.1,0-0.2c-0.2,0-0.5,0-0.6-0.2c-0.5,0.2-0.3,0.4-0.6,0.6c-0.1-0.3-0.5,0-0.8,0.1
		c-0.3,0.1,0.4,0.2,0,0.4c-0.3,0.2-0.4,0-0.6-0.1c0.2-0.3,0.5-0.3,0.7-0.5c-0.2-0.1-0.4-0.2-0.2-0.4c-0.1,0-0.2,0-0.2,0
		c-0.1,0.1,0,0.2-0.1,0.2c-0.2,0.1-0.3,0.1-0.3,0c-0.2,0.3,0.5,0.1,0.6,0.3c-0.4,0.2-1.1,0.4-1,0.7c-0.3,0.2-0.4-0.1-0.7,0
		c0.1,0.2-0.6,1-1.3,1c-0.5,0.3,0.2,0.5,0.2,0.6c0.2-0.3,0.8-0.3,0.7-0.6c-0.1-0.1-0.3,0.1-0.5,0.2c0.1-0.6,1.4-0.7,1.6-1.2
		c0.2,0.2,0.4,0.3,0.3,0.5c-0.2,0.3-0.7,0.2-0.7,0.4c-0.3,0.2-0.2-0.2,0.1-0.2c-0.8,0.1-0.6,0.8-1.3,1c1-0.4,2-0.9,2.9-1.6
		c0.4-0.1,0.8,0,1.1,0.2c0.2-0.2-0.3-0.4-0.4-0.6c0.3,0,0.1-0.1,0.4-0.3c0.3,0.1,0.1,0.3,0.3,0.5c0.3,0.1,0.5-0.3,0.8-0.3
		c0.1-0.2-0.2-0.1-0.2-0.3c-0.3,0.1-0.1,0.2,0,0.3c-0.3,0.2-0.3,0-0.6,0.2c-0.2-0.4,1.5-1.1,0.9-1.4c0.2,0,0.5,0.1,0.7,0.2
		c-0.3,0.5,0.6,0.4,1,0.6c0.2-0.2,0-0.3,0.4-0.3c0.1,0.1,0,0.2,0.1,0.3c0.6-0.4-0.5-0.3,0.4-0.7c0.1,0.2-0.1,0.3,0.1,0.5
		c0.4-0.7,0.3-0.8,0.6-1.3l0.4,0.4c0.1,0.1,0.3-0.3,0.7-0.4c-0.2-0.2-0.5-0.1-0.1-0.4c0.1,0.1,0,0.3,0.3,0.2
		c0.2-0.2,0.4-0.4,0.5-0.7c-0.2,0.1-0.9,0.1-0.2-0.2c-0.3,0-0.6,0.1-0.8,0.3c0-0.1,0.8-0.9,1.3-0.9c-0.4,0.4-0.2,0.5,0,0.9
		c0.4-0.3,0.2-0.3,0.7-0.4c0.1-0.1,0-0.2-0.1-0.2c0.7-0.3,1.4-0.7,1.9-1.3c-0.1,0-0.2,0-0.3-0.1c-0.2,0.1,0,0.2-0.3,0.4
		c-0.1-0.2-0.2-0.5-0.2-0.8c0.4,0,0.5-0.4,0.9-0.2c0.1-0.3,0.4-0.5,0.7-0.6c0.2,0.2-0.1,0.4,0.2,0.5c0.6-0.3-0.1-0.4,0-0.7
		c-0.1-0.1-0.3,0.1-0.5,0.2c0-0.2,0.5-0.7-0.2-0.3c0.3-0.4,1.2-0.6,1.4-0.3c-0.7,0.2,0.1,0.6-0.4,0.6c0.4,0.2,0.9-0.2,1.1-0.5
		c0,0.1,0.1,0.1,0.2,0c0,0.1-0.2,0.2-0.1,0.2c0.1,0,0.2,0,0.3,0c-0.3-0.4-0.3-0.3,0.5-0.2c0.2-0.2-0.6-0.2,0-0.5
		c0.1,0.2,0.5,0.1,0.6-0.1c-0.5,0.1,0-0.1-0.3-0.3c0.3-0.3,0.4,0,0.6-0.1c0,0.1-0.2,0.2-0.1,0.2c0.1,0,0.2,0,0.3,0
		c0.2-0.1-0.1-0.2,0-0.4c-0.1-0.2-0.6,0.1-0.2-0.2c0,0-0.5,0.2-0.6,0.3c-0.2-0.2-0.6-0.1-0.7-0.3c0.3-0.2,0.4,0.1,0.7,0
		c0.1-0.2,0.6-0.4,0.6-0.6c-0.4,0-0.7,0.5-1,0.2c0.6-0.2,0.2-0.3,0-0.4c0-0.1,0.1-0.1,0.1-0.1c0.1,0,0.1-0.1,0.1-0.1
		c0.3,0,0,0.5,0.7,0.1c-0.2-0.4,0-1-0.7-0.8c0.1-0.1,0.2-0.1,0.2-0.2c0.2-0.1,0.4,0,0.5,0.2c0,0.1,0,0.1,0,0.2c0.2,0,0.3,0,0.4-0.1
		l0.1-0.1l0,0l0,0c0.4-0.1-0.8,0.2,0.8-0.2h0h0.1l0.3,0c0.4,0,0.7,0,0.9,0.2c-0.1-0.2,0.4-0.2,0.6-0.5c-0.5-0.1-0.9-0.1-1.4-0.1V46
		c-0.3-0.1,0.2-0.3,0-0.5c0.1,0.5,1-0.1,1,0.4c0.4,0.1,0.7,0,1-0.3c-0.4-0.3-0.7,0.1-1-0.1c0.1-0.3-0.1-0.4,0.1-0.5
		c0-0.1-0.4,0-0.4-0.1c-0.2,0-0.1,0.1-0.1,0.2c-0.4,0-0.5-0.2-0.9-0.2l-0.1,0.1l0,0v0h0c-0.9,0.2,1.9-0.5-1.9,0.5l0,0v0l0,0
		l-0.1,0.1c-0.1,0.1-0.2,0.1-0.3,0.2c-0.3,0.1-0.5,0.3-0.6,0.6c-1.1,0-0.8,0.9-1.4,0.5c-0.4,0.6-1.1,0.7-1.9,1.1
		c-0.3,0.2,0.3,0,0.1,0.3c-0.3,0.1-0.5,0-0.8,0.1c0.3-0.8,1.2-0.9,2.1-1.6c-0.6-0.2-2.2,1.7-3.2,1.6c-0.1,0,0.3-0.5-0.2-0.2
		c-0.1-0.3,1-0.6,0.7-0.9c0.9-0.2,0.8-0.5,1.5-0.8c0.1-0.1,0-0.1,0-0.2c-0.5,0.2-1,0.5-1.5,0.6c0.1-0.2,0.1-0.3-0.2-0.4
		c0.7-0.1,0.6-0.2,1.3-0.7l0.3,0.3c0.4-0.5,0.9-0.8,1.4-1.1c-0.4-0.3-1,0.5-1.3,0.7c-0.1,0,0-0.1,0.1-0.1c0.2-0.2-0.4,0-0.5-0.1
		c-0.1,0.4-0.6,0.5-1.2,0.7c0-0.1,0.1-0.2,0.1-0.3c-0.3,0.2-0.8,1.1-1.4,0.9c-0.2,0.3-0.8,0.6-0.9,0.8c-0.3,0-1,0.4-1.5,0.8
		c0-0.1,0.1-0.2,0.1-0.3c-0.5,0.8-1.5,1-2.4,1.8c0.2-0.2,0-0.4-0.1-0.1c-0.5,0.1,0.1-0.3-0.2-0.3c0.4-0.2,0.8-0.3,1.2-0.4
		c0.3-0.2-0.3,0-0.3-0.3c0.7-0.4,1.1-0.5,1.2-1c0.5,0,0.7-0.4,1.2-0.4c0.1-0.1,0-0.2-0.1-0.2c0.7,0,0.7-0.5,1.4-0.9l0.2,0.2
		c0.2-0.1,0.3-0.2,0.4-0.1c-0.2-0.2,0.9-0.9,1.6-1.5l0.2,0.2c0.8-0.5,0.2-0.7,1.2-1.3c-0.3-0.1-0.1-0.2-0.3-0.2
		c0.2-0.2,0.9-0.7,1-0.6c0.1-0.1,0-0.3,0.1-0.4c0.5,0.1,0.4,0.5,0.6,0.7c0.2-0.1,0.2-0.2,0.1-0.3c0,0,0-0.1,0-0.1l0,0l0,0l0,0
		c8.8-2.4,2.4-0.7,4.4-1.2h0l0.1,0l0.2,0c0-0.2-0.2-0.2-0.1-0.4c0.7,0.1,0.6,0,1-0.2c0.3,0.2,0.5,0,0.7,0.1c-0.1,0,0,0.2,0.6,0.4
		c0.4-0.1-0.4-0.1-0.1-0.3c0.3,0,0.8,0.1,0.4,0c0.1-0.2,0.4,0,0.3,0.1c0.4-0.3,0.8-0.5,1.3-0.6c-0.9-0.1-1.9-0.1-2.8,0.1
		c-0.2-0.2,0.2-0.3-0.3-0.4c-0.4,0-0.4,0.2-0.6,0.3c-0.5-0.1-0.1-0.2,0.1-0.3c-0.1-0.1-0.3-0.1-0.4-0.1h-0.1h-0.1l0,0h0
		c-11,2.9-3,0.8-5.5,1.5l0,0l0,0l0,0l0,0l-0.2,0.2c0.7,0.2-0.4,0.7-0.6,0.8c-0.5,0.1,0.1-0.4,0.5-0.6c-0.4-0.1-0.1-0.5-0.2-0.8
		l0.1,0l0,0v0h0c-5.3,1.4,7.2-1.9,5.9-1.6h0l0.1,0l0.1,0l0.4,0c0.2,0,0.4,0,0.6-0.1c0.4,0.1,0.7,0.2,1.1,0.2c0.2,0,0-0.1-0.1-0.1
		c0.5-0.3,0.6,0.2,0.9,0.2c0.4-0.1-0.1-0.1,0-0.3c0.2,0,0.5,0,0.7,0c0,0.3-0.1,0.7-0.6,0.5c0,0.1,0.1,0.1,0.1,0.2
		c0.6-0.1,1.1-0.4,1-0.7c0.5,0,0.3,0.3,0.6,0.4c0.1-0.1,0-0.4,0.7-0.4c-0.2,0.1-0.1,0.1,0,0.2c0.2-0.1,0.3-0.2,0.4-0.3
		c0.8,0.1,1.6,0.1,2.4,0c0.1,0.1,0.1,0.1,0.1,0.2c0.4,0,0.3-0.2,0.7-0.1c0.2,0.1,0.3,0.2,0.5,0.3l0.3,0.1l0.1,0l0.1,0l0,0l0,0h0
		c-0.5,0,4.3,0.4,2.3,0.2l0,0l0,0c0.5,0-4.3-0.4-2.3-0.2h0v0l0,0l0,0l0,0l-0.1,0.1c0,0.1-0.1,0.1-0.1,0.2c-0.7-0.3-2,0.4-2.7-0.1
		c-0.9,0.3-1.8,0.4-2.7,0.1c-0.2,0-0.4,0.1-0.4,0.2c0.1,0.2,0.9,0.1,0.7,0.4c-0.1,0-0.1-0.1-0.1-0.1c-0.3,0-0.6,0.1-0.8,0.1
		c1.8,0.5,2.2,0.1,3.7,0.1c-0.1,0.3-1,0.1-1.3,0.3c0.4,0.1,0,0.3,0.3,0.4c0,0.2-0.4,0.2-0.6,0.3c-0.3-0.1-0.1-0.4,0.3-0.4
		c-0.1-0.2-0.8-0.1-0.4-0.3c-0.7-0.1-0.6,0.1-1.3,0c-0.6,0.4-0.3,1.1,0.8,1.1c1.3-0.5,3.1,0.3,4.7-0.3l0.1,0l0,0l0,0
		c0.7,0.1-1.6-0.2,1.6,0.2l0,0l0,0l0.2,0.1l0.3,0.1c0.2,0.1,0.4,0.1,0.6,0.1c0.4,0,0.8,0.1,1.2,0.2c0.1-0.2-0.2-0.3-0.6-0.3
		c0.4-0.2,0.5,0.2,1,0.1c-0.2,0.4-0.5,0.7,0.2,1c0.1,0,0.1-0.1,0.2-0.1c0.1,0.2,0.8,0.2,0.7,0.4c-0.7-0.2-1.2,0-1.5-0.4
		c-0.2,0.1-0.5,0.1-0.7,0c0.5,0.5,1.8,0.5,2.5,0.8c0.2,0,0.3-0.3,1,0c0.1-0.2-0.5-0.2-0.4-0.4c0.3,0,0.6,0.1,0.9,0.3
		c0.2,0,0-0.1,0.3-0.1c0.4,0.6,1.1,0.9,1.7,0.9c-0.3-0.2-0.6-0.3-0.9-0.4c0.3,0,0.7,0,1,0c-0.1,0.2-0.1,0.3,0.2,0.4
		c0.5,0,0.1-0.1,0.3-0.3c0.2,0.2,0.4,0.5,0.9,0.3c0.1,0.2,0.6,0.2,0.7,0.4c0.4,0-0.4-0.2,0.1-0.3c0.3,0.4,0.2,0.6,1,0.8
		c0.2,0,0.3-0.2,0.1-0.2c0.7,0.2,1.5,0.3,2.2,0.3c0,0.1-0.2,0.1-0.2,0.2c0.2,0,0.2,0.1,0.3,0.1c0.2,0,0.1-0.1,0-0.1
		c1.6,0.1,3.2,0.4,4.7,0.8c0.2,0.1,0.4,0,0.4,0.1c0.4,0-0.2-0.4,0.5-0.2c0.2,0.2,0,0.1-0.1,0.3c0.3,0.2,0.6-0.1,0.7,0.1
		c0,0.2-0.8-0.2-1.2,0c-0.1,0.1,0.1,0.2,0.2,0.2c-0.1,0.2-0.8,0-1.1-0.1c0.1-0.1,0.5,0.1,0.6,0c-0.3-0.2-0.7-0.3-1-0.4
		c0.1,0.1,0.3,0.1,0.2,0.3c-0.5,0.1-0.5-0.2-0.8-0.3c-0.4,0,0.1,0.3,0,0.4c0.2,0,0.7,0.2,0.7,0.1c0.1,0.3-1.6-0.2-1.8-0.3
		c0.1-0.2,0.5,0,0.7-0.1c-0.1-0.3-0.7,0-0.6-0.3c-0.2,0-0.2,0.3-0.4,0.4c-1.1-0.2-2.7-0.4-3.6-0.5c0.2-0.2,0.1-0.2,0.1-0.4
		c-0.3-0.1-0.4,0.1-0.4,0.3c-0.3-0.3-0.4,0.1-0.9,0c0-0.2,0.3-0.1,0.3-0.3c-0.5-0.1-0.4,0.1-0.4,0.3c-2.2-0.5-5.3-0.9-8.4-1.4
		l0.1-0.2c-0.2,0.2-0.7,0-1,0.1c0.1,0.2,0.4,0,0.7,0.1c-0.1,0.1-0.3,0.1-0.5,0.1c0,0.1,0.2,0.2,0.5,0.2c0,0.4-1.3,0.2-1.4-0.1
		c0.1-0.1,0.3,0.2,0.5-0.1c0-0.1-0.4,0-0.5-0.2c0.2,0,0.5,0,0.7,0c-0.1-0.2-0.5-0.3-0.6-0.5c-0.2,0.2-0.5,0.1-0.9,0l-0.1,0l0,0h0h0
		c0.8,0.1-1-0.1-0.9-0.1H190l-0.2,0c-0.1,0-0.2,0.1-0.3,0.2c-0.5-0.2,0-0.2-0.6-0.2c-0.7,0.4-2,0.1-3.1,0.3c0.7-0.4-0.7-0.1-1.1-0.1
		c0-0.1,0.1-0.1,0.1-0.1c-0.3,0.1-0.3,0-0.7,0c0.2,0.3-0.9,0-0.6,0.3c-0.2,0.2-0.5-0.1-0.6-0.2c-0.2,0-0.1,0.1-0.1,0.2
		c-0.2-0.2-0.4,0-1-0.1c0.2-0.1,0.2-0.2-0.1-0.2c-0.8,0,0,0.4-0.6,0.5c0,0.1,0.6,0,0.7,0.1c0.2,0,0.3-0.1,0.3-0.2
		c0.8,0.3,1.6,0.3,2.4,0.1c0.1,0.1,0.4,0.2,0.1,0.4c0.3,0,0.7,0,1,0c-0.8,0.2-2.3,0.4-2.8,0c-0.2,0.1-0.2,0.3-0.3,0.4
		c0.4,0,0.3-0.2,0.7-0.1c-0.8,0.3,0.2,0.5-0.1,0.9h0.3c0.2-0.1-0.1-0.3,0.3-0.4h-0.3c0.7,0,2,0,2.8,0c0.2,0.1,0.2,0.3,0,0.3h0.4
		c0.1-0.2-0.2-0.2-0.3-0.3c0.1-0.2,0.3,0.2,0.4,0.2l1.1-0.1c-0.3,0.4,0.6,0.1,1.1,0.3c-0.2,0.3-0.8-0.1-1,0.3
		c-0.6-0.1-1.2-0.1-1.7,0.1c0.2,0.2,0.5-0.1,0.7,0.1c-0.3,0.6,0.3,0.4,1.1,0.1c-0.5,0.2-0.2,0.6,0.1,0.8c-0.5,0.1-0.5-0.1-0.7-0.3
		c-0.2,0.2-0.4,0.3-0.7,0.3c-0.3,0,0-0.3-0.4-0.3c-0.3,0.1-0.3,0.6-1,0.5c0-0.1,0.4,0,0.4-0.1c-0.6-0.2-0.6,0-0.6,0.3
		c-0.5,0-0.4-0.1-0.3-0.3c-0.1,0.2-0.7,0.2-0.8,0.4c0,0.1,0.3,0.1,0.6,0.1c-0.1,0.2-0.4,0.2-0.6,0.2c0.4,0.2,0.5,0.3,0.1,0.6
		c0,0.1,0.1,0.1,0.1,0.1c0.2,0,0.4,0,0.6-0.1c0.3,0,0,0.3,0.6,0.2c-0.4,0.2,0,0.4-0.3,0.6c-0.5-0.3-0.2,0-0.3,0.1
		c-0.3,0.2-1,0.1-1.3,0.4c-0.3-0.1-0.5-0.3-0.6-0.6c-0.2,0-0.2,0.1-0.4,0.1c0.1,0.2,0.4,0.2,0.3,0.5c-0.6,0.1-1.1-0.2-1.5,0.2
		c-0.1,0-0.2-0.1-0.3-0.2c-0.4,0-0.7,0-1,0.1l-0.5,0h-0.1h0h0h0c-2.5,0.7,3.4-0.9,2.8-0.7h0l0,0l0,0l-0.2,0.1
		c-0.4,0.3-0.8,0.6-1.2,0.9c-0.9,0.6-1.7,1.2-2.7,1.7c-0.1-0.1-0.3-0.1-0.5-0.1c-0.2,0.3,0.4,0.1,0.5,0.3c-1.7,1-3.4,2-5,3.2
		c0.1,0.1,0.2,0.1,0.4,0c0,0.1-0.2,0.1-0.5,0.4c-0.1-0.2-0.1-0.2-0.4-0.1c-0.1,0.1,0.1,0.2,0.1,0.3c-0.1,0.1-0.3,0.1-0.4-0.1
		c0,0,0,0,0,0l-1.5,0.9c0.4,0.1,0.5-0.2,0.8-0.1c-0.3,0.8-1-0.2-1.8,0.7c0.2,0.2,0.6-0.2,0.9-0.2c-0.2,0.4,0.2,0.2,0.5,0.4
		c0-0.1,0.3-0.2,0.2-0.3c0.3,0.1-0.1,0.3,0.6-0.2c0.1,0.3-0.8,0.6-1,1c-0.2,0.1-0.2-0.1-0.4,0c-0.9,0.9-2,1.6-3.3,2.1
		c-0.3-0.2,0.4-0.2,0.4-0.4c-0.2,0-0.5,0.2-0.7,0.1c-0.3,0.4-0.5,0.4-1.2,0.8c0.2-0.1,1-0.3,0.3,0.1c0.2,0.1,0.4-0.1,0.5,0.1
		c-0.3,0.1-0.5,0.1-0.8,0.1c-0.2,0.2,0.1,0.3-0.3,0.4l-0.2-0.2c-0.5,0.4-0.8,0.5-0.9,0.8c-0.8,0.6-1,0.2-1.7,0.8
		c-0.3,0-0.1-0.1-0.2-0.2c-0.4,0.2-0.6,0.5-0.5,0.7c-0.4-0.1-0.7,0.1-1,0.3l-0.5,0.4l-0.1,0.1l0,0l0,0c3.5-3.4,0.9-0.9,1.7-1.7l0,0
		h0l-0.1,0.1l-0.2,0.2l0.2,0.1c0.1,0,0.1,0,0.2-0.2l0.1-0.2l0,0v0c-3.6,3.5-1,1-1.8,1.8v0l0,0h0l0.1,0l-0.1,0.1l0,0
		c-1.6,1.6,2.2-2.2,1.8-1.8l0,0v0l0,0l0,0.1c0.1,0,0.1,0.1,0.1,0.1l-0.2,0.4c0.2,0,0.3-0.4,0.5-0.4c0,0.4-0.1,0.5-0.3,1
		c-0.2-0.1-0.3,0.2-0.4,0.1c-0.2,0.2,0,0.4-0.3,0.3c-0.4,0.8-0.4,0.8-0.8,1.5c-0.1,0.3,0.2,0.5,0.3,0.7c-0.1,0.3-0.4,0.2-0.6,0.3
		c-0.1,0.3,0.3,0.3,0.2,0.5c-0.2,0.2-0.4,0.5-0.7,0.3c0.1-0.1,0.1,0,0.2,0c0-0.1,0-0.2-0.1-0.3c-0.4-0.1-0.2,0.6-0.6,0.5
		c-0.1,0.3,0.6-0.3,0.6,0.1c-0.1,0.2-0.2,0.2-0.4,0.1l0,0l0,0l0,0c-0.1,0.4,1.2-3.5,0.6-1.9v0l0,0l0,0.1l0.1,0.1
		c0,0.1,0.1,0.1,0.1,0.2c0.1,0,0.1-0.1,0.1-0.3l0-0.1v0l0,0c-0.3,0.9,0.6-1.9-0.6,1.9l0,0l0,0l0,0c0,0,0.1,0,0.1,0.1l0,0v0
		c-0.6,1.8,0.8-2.4,0.7-2l0,0v0.1l0,0.2l0,0.3c0.2,0,0.3,0,0.3-0.2c0.4,0.5-0.4,0.5-0.7,0.9c-0.1,0.3,0.2,0.5-0.1,0.8
		c0,0.2,0.2-0.1,0.2,0.1c0.1-0.1,0.2-0.2,0.2-0.3c0.3-0.4-0.2,0.6,0.1,0.2c0.2,0.2-0.3,0.3-0.2,0.5c0.1,0.3,0.2-0.3,0.5-0.1
		c0,0.1,0,0.2,0.1,0.2c-0.2,0.2-0.4,0.2-0.7,0.2c-0.2,0-0.1,0.4-0.3,0.4c0,0.4,0.2,0,0.3,0.2c0.1,0-0.1-0.2,0.1-0.2
		c0.4,0.1-1.1,1-0.1,1.2c-0.2,0.4-0.3,0.8-0.3,1.2c0.1-0.1,0.2-0.1,0.2,0c0.2-0.4,0.2-0.1,0.7-0.5c0,0.2-0.5,0.4-0.2,0.6
		c-0.2,0-0.4,0.1-0.4,0.3c0,0.1,0.2,0.1,0.4,0.1c-0.1,0.1-0.3,0.5,0,0.2c0.1,0.5-0.6,0.5-0.7,0.5c0.3,0.8,0.8-0.1,1.4,0
		c-0.2,0.1,0,0.4,0.1,0.1c0.3,0.6-0.4,0.1-0.4,0.6c0.5,0.5,0.8-0.1,0.9,0.4c0.3-0.2,0-1.1,0.6-1.3c0.2,0.1-0.1,0.6-0.3,0.6
		c0,0.4,0.4,0.4,0.3,0.9c-0.3-0.1-0.3,0.1-0.5,0.1c0.2,0.3,0.7,0.3,0.8,0.8c-0.2-0.2-0.4-0.3-0.5,0.2c-0.1,0-0.2-0.5,0-0.4
		c0-0.1-0.2-0.1-0.2-0.2c-0.2-0.1-0.2,0.2-0.4,0.2c-0.1,0.2,0.4,0.2,0.3-0.1c0.2,0.2-0.1,0.5-0.2,0.6c-0.3-0.4-0.4,0.7-0.7,0.3
		c0,0.3-0.2,0.3-0.2,0.6c0.3-0.4,0.5-0.3,0.9-0.5c0.1,0.2,0.1,0.4,0,0.6c-0.1-0.3-0.2,0-0.3-0.2c-0.1,0.1-0.2,0.5-0.1,0.6
		c0.2,0.1,0.2-0.2,0.3-0.3c0.2,0.1,0.1,0.3,0,0.5c0,0.1,0,0.2,0,0.2l0,0.1l0,0v0h0c-0.3-1.5,0.7,3.3-0.7-3.3h0l0.1,0
		c0,0.5,0.4,0.9,0.8,1.7c-0.1,0-0.1-0.1-0.2-0.2c-0.1,0,0,0.1,0,0.2c-0.3-0.1-0.1-0.4-0.4-0.7l-0.2,0.1c-0.1,0.2,0.3,0.7,0,0.8
		c0.3,0,1,0,1-0.5c0.1,0.1,0.1,0.6,0.2,0.3c0.3,0.1-0.1,0.4,0,0.6c0.2-0.1,0.2-0.2,0.2-0.3c0.3,0.2,0.5,0.8,0.9,0.7
		c0.1,0.1-0.1,0.2-0.2,0.1c-0.1,0.1,0.2,0.5-0.2,0.4c-0.3-0.1,0-0.2-0.3-0.5c-0.2,0-0.1,0.1-0.2,0.2c0.1,0.4,0.5,0.3,0.4,0.6
		c0.4-0.1,0.8,0.1,0.9,0.6c0,0,0,0.1,0,0.1c-0.3,0-0.6-0.2-0.8-0.4c0,0.1-0.1,0.2-0.2,0.2c0.2,0.1,0.4,0.2,0.6,0.3
		c0.1,0.2-0.1,0.3-0.3,0.3c0.2,0.1,0.6,0.2,0.5,0.5c0.1,0,0.3-0.1,0.3-0.2c0.3,0,0.2,0.3-0.1,0.3c0,0.1,0.5,0.1,0.2,0.3
		c0.1,0,0.5-0.4,0.8,0.1c0.3-0.1-0.2-0.6-0.1-0.8c-0.1-0.1-0.3-0.2-0.4-0.1c0,0,0,0,0,0c0-0.2,0.1-0.1-0.1-0.4
		c0.3-0.1,0.5,0.4,0.8,0.1c0.3,0.3-0.2,0.3-0.3,0.2c0.2,0.3,0.4,0.5,0.7,0.7c0.1-0.1,0-0.3,0.1-0.3c0.2,0.4,0.1,0.7,0.5,1
		c-0.3-0.1-0.2-0.2-0.4,0c0.2,0,0.4,0.4,0.6,0.3c0,0.2-0.2,0.2-0.3,0.3c0.4,0.4,0.5,0.9,0.5,1.4c0.2,0.2,0.5-0.2,0.3-0.4
		c0.4,0,0.5,0.6,0,0.6c0.1,0.3,0.3,0.6,0.5,0.7c0.1-0.2-0.3-0.3-0.1-0.5c0.5,0.5,0.9,1.1,1.1,1.8c0-0.5,0.5,0.4,0.8,0.3
		c0.1,0.2-0.3,0.2-0.2,0.4c-0.2,0-0.1-0.2-0.3-0.4c-0.2,0.1,0.3,0.8,0.6,1c0.2-0.1-0.2-0.2-0.3-0.5c0.6,0.2,0.7,0.6,1.1,1.1
		c-0.1,0.1-0.3,0.1-0.3,0.2c-0.2,0-0.1-0.4-0.4-0.2c0,0.1,0.2,0.3,0.2,0.4c0.1,0.3-0.3-0.2-0.5,0c0.6,0.2,0.5,0.4,1.1,0.5
		c0.3,0.5,1,1.2,0.5,1.5c0.1,0.2,0.4-0.1,0.6-0.1c0,0.2,0,0.6-0.3,0.4c0.1,0.1,0.1,0.2,0.2,0.3l0.1,0.1l0,0.1v0l0,0v0l0,0
		c-2.1-1.8,4.8,4.1-4.8-4.1c0,0,0,0.1-0.1,0.1l0,0l0,0h0c2.1,1.8-4.7-4,4.7,4.1h0l-0.1,0c-0.1,0-0.2,0-0.2,0l0.1,0.1
		c4.1,3.5-5.6-4.8-4.6-4h0v0h0h0.1l0.2,0l0.2-0.2c0.1-0.1,0-0.1-0.2-0.1H167c2.1,1.9-4.8-4.2,4.8,4.2h0l0,0l0,0c0,0,0,0,0.1-0.1
		c0,0,0.1,0,0.1,0l0,0l0,0l0,0c-9.8-8.5-2.7-2.4-4.9-4.3l0,0h0l0.1,0c0.1,0.1,0.3,0.2,0.2,0.2c0.2,0,0.4,0,0.6,0
		c0.5,0.2,0.3,0.4,0.7,0.6c-0.2-0.2,0-0.5-0.1-0.5c-0.1-0.3,1,0.2,1.1,0.4c-0.1,0.1-0.4-0.3-0.7-0.2c0.3,0.4,1.1,0.2,1.1,0.7
		c0.4,0.1,0-0.3,0.3-0.2c0.1,0.2,0.3,0.4,0.4,0.5c0.2-0.1,0.6,0.2,0.7,0c0.6,0.4,1.3,0.8,2,1c-0.1,0-0.2,0.1-0.3,0.2
		c0.9-0.1,2.5,0.9,3.4,1.3c0.2,0.1,0.2-0.2,0.4,0.2c0.1,0,0.2,0,0.3,0c-0.1-0.1-0.2-0.2-0.3-0.3c0.4,0.2,1.3,0.8,1.9,0.6
		c0.3,0.4,0.8,0.6,1.3,0.7c1,0.7,2,1.2,3.1,1.5c-0.1,0.1-0.3,0-0.4,0.1c0.3,0.1,0.6,0.3,0.8,0.4l0,0h0c2.3,0.8-3.2-1-2.6-0.8h0l0,0
		v0l0,0v0c-0.6-0.2,5,1.6,2.6,0.9l0,0l0,0v0l0-0.1l0,0h0c-5.3-1.7-1.5-0.5-2.7-0.9h0h0.1h0.2l0.3,0.1c0.2,0.1,0.5,0.1,0.7,0.2
		c0.5,0.2,1,0.3,1.5,0.4c-0.1,0.1-0.1,0.3,0,0.4c0.5,0,0.7,0.3,0.9,0c0.3,0,0.1,0.2,0.3,0.3c0.3,0-0.2-0.3,0-0.4
		c0.3,0.2,0.4,0.1,0.8,0.2c-0.8,0.4,1.2,0.5,1.8,0.8c-0.3-0.1-0.1-0.4-0.4-0.5c0.1-0.1,0.2,0,0.2,0.1c1,0.3,1-0.1,1.3,0.4
		c0.2,0,0-0.1,0.1-0.2c0.6,0.1,0.6,0.3,0.9,0.4c0.2-0.1,0.8-0.3,0.8,0.2c0.1,0,0.7,0,0.5,0.2c0.3,0,0.3-0.1,0.6-0.1
		c0.1-0.1-0.5-0.1-0.7-0.2c0.4-0.4,0-0.6,0.2-1c0.4,0.3,0.7,0.7,1.1,1.1l0.1,0.2l0.1,0.1l0,0l0,0c-2.6-0.1,5.7,0.2-5.7-0.2h0l0.1,0
		l0.4,0.2l0.8,0.3c0.4-0.1-0.8-0.3,0.2-0.4c-0.1-0.1-0.5,0-0.4-0.2c-0.5,0-0.4,0.2-0.7,0.1c0-0.2,0.3-0.2,0.7-0.2
		c-0.2,0-0.6-0.3-0.3-0.5c-0.3-0.1-0.9-0.2-0.7-0.5c0.3,0,0.7,0,1,0c0.2,0.5,1.1,0.4,0.8,0.9c0.5,0,0.6,0.2,0.7,0.4
		c0.5-0.2,1.2-0.1,1.4-0.4c-0.2-0.1-0.5,0.1-0.8,0.1c-0.3-0.2,0.5-0.8-0.2-0.8c0-0.3,0.3-0.1,0.8-0.2c0.2,0.3,0,0.6,0.7,0.6
		c-0.1,0.1-0.2,0-0.4,0.2c0.5,0,0.7,0.3,1.2,0.3c0.1-0.1,0-0.2,0.2-0.4c0.4,0,0.8,0,0.8-0.3c-0.1-0.2-0.6,0.1-0.8,0.1
		c-0.8-0.1,0.2-0.7-0.6-0.6c0.4-0.1,0.4-0.3,0.2-0.5c0.2,0,0.4-0.1,0.4-0.1c0.7,0.2,1.5,1.6,2.3,0.7c-0.3-0.2-0.3-0.4,0-0.7
		c-0.3-0.1-0.9-0.3-0.6-0.6c1.8,0.2,1.4,2,3.4,1.8c0.3-0.1,0.1-0.3,0.3-0.4c-0.7-0.3-0.8-1.3-1.3-1.7c1.1-0.1,0.4,0.7,1.5,0.6
		c0.1,0.5,0.8,0.6,0.9,1.2c0.2,0,0.3-0.1,0.5-0.2c-0.1,0.1-0.3,0.1-0.2,0.3c0.4,0.1,0.9,0.1,1.3,0.1c0.1-0.5-0.8-0.6-0.4-1.1
		c-0.7-0.2-0.6-0.5-0.5-0.9c1.1,0,1.9,1.1,1.7,1.4c0.1,0.1,0.4,0.1,0.6,0.1c-0.4,0.4,0.9,0.9,0.2,1.3c0.5,0,0.4,0.1,0.2,0.3
		c0.7,0.1,1.1,0.4,2,0c-0.2-0.1-0.6-0.3,0-0.4c-0.2-0.1-0.4-0.1-0.6-0.1c-0.2-0.2,0.3-0.2,0.3-0.3c-0.1-0.1-0.2,0.1-0.4,0
		c-0.1-0.2,0.4-0.1,0.4-0.3c0.6,0.1,0.5,0.4,1,0.6c-0.4,0.2,0,0.2-0.2,0.4c0.3-0.1,0.5-0.2,0.8-0.2c-0.3,0.3,0,0.4-0.1,0.7
		c0.1,0,0.3,0.1,0.4,0.1c0,0.6,0.5,1.3-0.1,1.8c0.2,0.1,0.6,0,0.5,0.4c-0.8,0.1-0.5,0.5-0.6,0.8c0.6-0.2,1-0.4,1.6-0.5
		c-0.5,0.3,0.2,0.3-0.4,0.6c0.7,0.4,1,1.3,0.7,2.1c-0.4,0.1-0.8,0.1-1.3,0.1c-0.1,0-0.1,0.1-0.3,0.1c0,0.1,0.2,0,0.3,0
		c-0.1,0.2-0.6,0-0.7,0c0,0.4-0.2,0.7,0.3,1c0.4-0.2,0.8-0.2,1.2-0.3c0.1,0.6-0.7,1.3-0.9,2c0.4,0,0.8-0.1,1.2-0.3
		c0.5,0,0.6,0.3,1.2,0.2c0.1,0.3,0,0.3,0.1,0.6c-0.6,0.3,1.4,0.6,0.8,0.9c-0.3,0-0.1,0.6-0.4,0.6c-0.3,0.2-0.5,0.8-0.8,0.9
		c-0.1,0.5-0.5,0.8-1,0.9c0.7,0.2-1,0,0.2-0.1c-0.5-0.2-0.3-0.2,0,0c0.2-0.1,0.3-0.1,0.3-0.3c0.2-0.1-0.3,0.2-0.1,0.2
		c0.3-0.2,0.5-0.4,0.7-0.7c0.1,0,0.3-0.7,0.5-0.7c0.4-0.2-0.6,0.7-0.7,0.9c-0.4,0.3-0.7,0.4-0.6,0.6c-0.1-0.1-0.2,0.4-0.3,0.2v0.1
		c-0.3,0,0,0.2-0.1,0c-0.2-0.1,0,0.2-0.1,0.1c-1.1,0.4,1-0.4-0.1,0.1c0.1,0.1-1.3,1.1-1.2,1.2c0.2-0.1-0.1-0.2-0.3-0.2
		c-0.1-0.2,0.3,0.2,0.3-0.1c0.3,0-0.5,0.5-0.3,0.4c-0.5,0.2,0.1-0.4,0,0c-0.5,0.1-0.8,0-0.6,0.3c-0.6,0.4-0.3,0.2-0.9,0.6l-0.7,0.5
		c-0.4,0.2,0,0.2-0.6,0.3c-0.2-0.1,0.2,0,0.2-0.2c0.3,0,0,0,0.2-0.1c0.1,0.4,0.8-0.3,0.4-0.2c-0.1-0.1-0.1,0.1-0.4,0.2
		c-0.2,0.1,0-0.1,0,0c0.4-0.6,0.2,0.2-0.7,0.4c0.3,0.3,0.2-0.2-0.3,0.1c0.5-0.2-0.6,0.1-0.5,0.2c-0.6,0.5-1.1,0.4-2,0.7l-2.3,0.5
		c-0.6,0.3-1.8,0-2.8,0.2c-0.5,0.1-1.3,0-1.8,0.1l-0.4,0l-0.2,0l0,0h0c-11-0.3-3-0.1-5.5-0.2h0h0l-0.1,0l-0.1,0l-0.8-0.2
		c-0.1,0.1,0.6,0.1,0.3,0.3c-0.9-0.2,2.5,0.6,1.3,0.5c0.1,0,0.3-0.2,0.3-0.3l-0.3-0.1c-0.4,0,0.1,0.2-0.1,0.3
		c-0.4-0.1-0.2-0.3-0.4-0.5c-0.5,0-0.1,0.3-0.6,0.3c-0.3,0-0.5-0.5-0.7-0.1c-0.2,0-0.1-0.2-0.1-0.2c-0.2,0-0.3,0.1-0.5,0.2
		c-0.6-0.3-1.4-0.2-1.5-0.6 M214.6,99.9c-0.3,0.3-0.6,0.5-1,0.6l0.3,0.2c0.2-0.3,0.5-0.5,0.9-0.6C214.7,100.1,214.6,100,214.6,99.9
		 M214.1,98.5c-0.4,0.3,0.1,0.4,0,0.6C214.5,98.9,214.1,98.7,214.1,98.5 M214.1,96.4c-0.1-0.2-0.1-0.6-0.4-0.3
		C213.9,96.1,213.7,96.6,214.1,96.4 M204.7,88.7c-0.1-0.1-0.1-0.1-0.1-0.2l-0.5,0.4c0.2,0.1,1.1-0.1,0.9-0.4L204.7,88.7z
		 M217.4,97.7c-0.1-0.1-0.3-0.2-0.5-0.1c0.4,0.1-0.2,0.4,0.1,0.5C217.3,98.1,217.3,97.9,217.4,97.7 M215.9,96.1
		c-0.2-0.1-0.4-0.1-0.6,0C215.4,96.2,215.6,96.3,215.9,96.1 M205.1,87.6c-0.4,0.7-1.6,1-1.8,1.7C203.9,88.6,205.1,88.3,205.1,87.6
		 M207.1,85.2c-0.3,0.3-0.8,0.2-0.5,0.5C206.7,85.5,207.2,85.3,207.1,85.2 M208.9,86.3c-0.5,0.5-1.4,1.1-1.4,1.5
		C207.8,87.3,209.1,86.7,208.9,86.3 M210.1,86.3c-0.2,0.4-0.8,0.3-0.7,0.7c0.2,0.1,0.6-0.4,0.9-0.6L210.1,86.3z M218.7,92.4
		c-0.3,0.3-0.4,0.2-0.7,0.4C218.6,92.9,218.5,92.8,218.7,92.4 M211,85.6c-0.3,0.2-0.6,0.4-0.5,0.6C210.7,86.1,211.3,85.7,211,85.6
		 M210,84.3c-0.7,0.5-1.3,1-2.1,1.5C208.4,86,210,84.4,210,84.3 M209.7,84c-0.1,0.1-0.2,0.2-0.1,0.3c-0.1,0.1-0.2,0-0.4,0.2
		C209.4,84.6,210,84,209.7,84 M217.9,88.5c-0.3,0.2-0.5,0.3-0.5,0.5C217.5,89,218.3,88.6,217.9,88.5 M221.8,89.7
		c0-0.2-0.3-0.5-0.6-0.2C221.4,89.5,221.5,89.8,221.8,89.7 M214,81.1c-0.4,0.2-0.7,0.5-0.8,0.9c0.1-0.1,0.3-0.2,0.4-0.2
		c0.1,0,0.1,0.1,0.2,0C213.4,81.7,214.3,81.3,214,81.1 M223,87.6c-0.2,0.2,0.2,0.8,0.5,0.4L223,87.6z M214,80.7
		c-0.2,0.1-0.4,0-0.6,0.3c0.1,0.1,0.2,0.2,0.2,0.3C213.9,81.1,214,80.9,214,80.7 M224.1,88.3c-0.3,0.1-0.7,0.3-0.5,0.5
		C223.8,88.5,224.2,88.5,224.1,88.3 M222.6,87.1c0,0.3,0.9-0.4,0.5-0.4L222.6,87.1z M216.4,81c-0.2,0-1.1,0.3-0.7,0.5
		C215.9,81.3,216.4,81.3,216.4,81 M219.7,82.5c-0.6,0.4-1.2,0.9-1.7,1.5c0.5-0.3,1.2-1,1.9-1.3L219.7,82.5z M217.1,80.3
		c-0.3,0.1-0.6,0.4-0.7,0.7C216.6,80.8,216.9,80.6,217.1,80.3 M218.5,81c-0.2,0-0.7,0.4-0.5,0.5C218.1,81.3,218.6,81.1,218.5,81
		 M218.3,80.2c-0.3,0-0.4,0.5-0.6,0.3c-0.1,0.1-0.2,0.2-0.2,0.3l0.1,0.1C217.9,80.7,218.2,80.5,218.3,80.2 M215.2,80.7
		c0.1,0.1,0.1,0.3,0.1,0.4l0,0.1v0l0,0c3.4-4.7,0.9-1.3,1.7-2.3h0l0,0l0,0l-0.2,0.1c-0.4,0.1-0.7,0.4-0.9,0.7
		c-0.4-0.1,0.1-0.4,0.1-0.6c-0.2,0.1-0.3,0.2-0.4,0.4l0.4,0.3c0.3-0.3,0.6-0.5,0.9-0.7l0.2-0.1l0.1-0.1l0,0l0,0h0
		c0.4-0.5-3.1,4.3-1.6,2.2h0v0l0-0.1c0.1-0.2,0.1-0.4,0.1-0.5c-0.1,0-0.3-0.1-0.3-0.2C215.3,80.6,215.2,80.7,215.2,80.7 M229.2,83
		c0.2-0.4-0.5-0.2-0.5-0.1L229.2,83z M227.6,82.8c0.3,0.1,0.5-0.4,0.1-0.4L227.6,82.8z M234.1,82.8c0,0.3-0.3,0.7-0.2,0.9
		C234.1,83.4,234.3,83,234.1,82.8 M228.4,82c0.2-0.5-0.3-0.4-0.5-0.1C228.2,82,228.1,82,228.4,82 M232.6,82.1c0,0.7-0.6,0.9-0.2,1.2
		c0-0.6,0.3-0.3,0.5-0.6C232.5,82.8,232.9,82.2,232.6,82.1 M227.3,80.8c-0.4,1.3-0.4,1.7-0.1,0.5C227.3,81.2,227.7,80.9,227.3,80.8
		 M214.5,78.7c0.4-0.1,0.1,0.5,0.4,0.2c-0.2-0.2,0.3-0.1,0.3,0.1c0.1-0.5-0.3-0.3-0.6-0.6L214.5,78.7z M231.6,81.1
		c-0.1,0.2-0.2,0.1-0.4,0c-0.1,0.3,0.2,0.3,0.3,0.4C231.6,81.4,231.7,81.2,231.6,81.1 M220.9,78.7c-0.3,0.7-0.2,1.1-0.5,1.6
		C220.8,79.8,221.1,79,220.9,78.7 M220.3,78.2c-0.1,0.2-0.2-0.2-0.3,0.2c0.4,0.3-0.2,0.8,0,1.2C220.1,79.2,220.2,78.7,220.3,78.2
		 M230.8,80c-0.2,0.2-0.4,0.3-0.6,0.3c0.1,0.4-0.5,0.8,0.1,0.8C230.5,80.7,230.7,80.4,230.8,80 M234.8,80.6c-0.2-0.1-0.5,0-0.7,0.1
		c0.4,0.4,0,0.7,0.5,0.1c0.2,0.2-0.4,0.4,0,0.5C234.7,81,234.8,80.8,234.8,80.6 M220.6,77.5c-0.3-0.1-0.5,0.4-0.1,0.4L220.6,77.5z
		 M233.4,79.8c-0.1,0.3-0.7,0.9-0.3,1.3c-0.2-0.1-0.3,0-0.4,0.3c0.1,0.2,0.3,0,0.5,0C233.3,80.8,233.4,80.3,233.4,79.8 M216.4,76.1
		c0,0.3-0.4,0.8-0.1,0.8C216.4,76.6,216.4,76.3,216.4,76.1 M234.7,78.6c0.2,0,0.4,0,0.4-0.3l-0.3-0.1L234.7,78.6z M221.8,75.7
		c-0.2,0.5-0.6,1.2-0.3,1.5C221.7,76.7,222,76,221.8,75.7 M220.9,75.4c-0.1,0.2-0.3,0.2-0.3,0.5c0.2,0.1,0.2,0.3,0.4,0.3
		c0.1-0.2-0.1-0.2-0.1-0.4C221,75.6,221.1,75.6,220.9,75.4 M216.1,74.3c-0.1,0.3,0.2,0.7,0.4,0.5c-0.1-0.1-0.3-0.2-0.1-0.5
		L216.1,74.3z M228.7,76.2c-0.3,1.4-1.1,2.8-1.1,3.9c0.5-1.1,0.9-2.3,1.1-3.5c0.3-0.1,0.3,0.4,0.5,0L228.7,76.2z M221.3,74.9
		c-0.1-0.1-0.3,0-0.4,0.1c0,0,0,0,0,0c0.2,0,0,0.3,0.2,0.4C221.2,75.2,221.3,75.1,221.3,74.9 M231.6,76.3c-0.2,1.4-1,1.7-0.6,2.6
		C231.2,78.2,231.9,76.9,231.6,76.3 M227.7,75.3c-0.1,0.1-0.6,0.6-0.2,0.6C227.6,75.9,227.8,75.3,227.7,75.3 M217.6,73.2
		c-0.2,0.1-0.2,0.6-0.2,0.9C217.7,73.8,217.7,73.5,217.6,73.2 M234.5,76.6c0.2,0.1,0.4,0.3,0.5,0.4c0.1-0.4-0.2-0.6-0.4-0.8
		L234.5,76.6z M217.4,72.9c-0.3,0.7-0.5,1.5-0.6,2.2C217.1,74.4,217.3,73.7,217.4,72.9 M221.4,73.4c-0.4,0.6-0.5,1.1,0,1.3
		c0.2-0.4,0.3-0.8,0.3-1.3L221.4,73.4z M218.6,72.9c-0.1,0-0.3,0-0.4,0c0.2,0.4-0.4,0.9,0,1.1C218.3,73.7,218.4,73.3,218.6,72.9
		 M221,72.9c-0.2,0.1-0.4,0.6-0.1,0.6C221,73.3,221.1,73.1,221,72.9 M217.5,72.3c-0.2,0.3-0.2,0.4,0,0.6
		C217.5,72.6,217.8,72.2,217.5,72.3 M221.9,73.6L221.9,73.6L221.9,73.6c-0.1-2.4,0-0.7-0.1-1.2v0l0,0l0,0l0,0.1l-0.1,0.3
		c-0.1,0.2-0.1,0.4,0.1,0.5c0-0.2,0.1-0.4,0.2-0.6l0.1-0.3v-0.1c-0.1-1,0.1,1.4,0.1,1.2L221.9,73.6l-0.1-0.2L221.9,73.6z M235,69.4
		c0.1,0.2,0.5,0.4,0.6,0.2C235.4,69.3,235.2,69.4,235,69.4 M228.3,71.2c0,0.2,0,0.3,0.1,0.5l0.1,0.1l0,0c-0.1-1.6,0.1,2.2,0.1,1.8v0
		v0l0,0l0,0.1c0,0.1-0.1,0.2-0.1,0.3c0.1,0,0.1,0,0.2-0.1l0.1-0.2l0-0.1l0,0v0l0,0v0c0,0.4-0.2-3.6-0.1-1.9l0,0
		C228.6,71.6,228.4,71.4,228.3,71.2 M218.6,73.6c0.2,0.1,0.3,0.3,0.4,0.4c0,0.1,0.1,0.2,0.1,0.2l0,0l0,0l0,0l0,0v0
		c-0.3-5.1-0.1-1.4-0.2-2.6v0h0l-0.1,0l0,0v0h0c0.3,5.2,0.1,1.4,0.2,2.6h0v0l0,0l0-0.1l0-0.2C218.7,73.9,218.6,73.7,218.6,73.6
		 M235.4,68.5c0.1-0.2-0.1-0.5-0.3-0.5C235,68.2,235.2,68.6,235.4,68.5 M224.8,70.5c0.2,0.3,0.3,0.6,0.5,0.8
		C225.1,71.1,225.1,70.4,224.8,70.5 M216.8,72.2c0.1,0.3,0.2,0.6,0.4,0.6C217.1,72.6,217,72,216.8,72.2 M233.6,67.5
		c0.2,0.2,0.2,1.1,0.5,0.8C233.9,68.3,234,67.4,233.6,67.5 M223.8,70c0.3,0.3,0.3,1.2,0.7,1.2C224.2,70.9,224.3,70.1,223.8,70
		 M220.6,71.1c0.4,0-0.2-1-0.5-1L220.6,71.1z M218.8,70.3c0.1,0.5,0.4,1,0.6,1.4C219.7,71.4,219.3,70.6,218.8,70.3 M219.7,68.9
		c-0.1,0.2,0.1,0.7,0.4,0.6C219.9,69.3,219.9,68.9,219.7,68.9 M216.8,69.6c0.1,0.8,0.6,1.1,0.6,1.7
		C217.7,70.9,216.9,69.9,216.8,69.6 M225.4,67.2c0.1,0.4,0.1,0.5,0.5,0.6C225.7,67.5,225.7,67,225.4,67.2 M228.6,66.1
		c0.2,0.1-0.2,0.6,0.3,0.7C228.9,66.6,228.7,65.7,228.6,66.1 M229,65.4c0.2,0.3,0,0.3,0.2,0.6c0.1,0,0.2,0.1,0.4,0.1
		C229.4,66,229.4,65.4,229,65.4 M224.6,65.7c0.6,0.9,0.9,1.9,0.5,0.3C224.9,66.1,224.9,65.5,224.6,65.7 M229.9,64.1
		c0.1,0.4,0.3,0.7,0.6,1c-0.1-0.3,0.1-0.3,0-0.6C230.3,64.5,230.1,64.2,229.9,64.1 M232.9,63.1c0.2,0.4,0.3,0.8,0.2,1
		C233.7,64.2,233.2,63.1,232.9,63.1 M228.7,64c0.1,0.3,0.3,0.7,0.5,0.5C229,64.3,229.1,64,228.7,64 M217,66.4c0,0.3,0.2,0.8,0.5,0.8
		C217.5,66.8,217.2,66.7,217,66.4 M225.7,63.5c0.2,0.3,0.2,1.3,0.8,1.3C226.2,64.5,226.1,63.9,225.7,63.5 M229,62.1
		c0.2,0.5,0.3,1.3,0.8,1.5c-0.2-0.5-0.4-1-0.5-1.5C229.2,62.1,229.1,62,229,62.1 M224.3,62.9c0,0.4,0.2,0.8,0.5,1
		C224.7,63.6,224.6,63,224.3,62.9 M225.2,62.5c-0.1,0.2,0.1,0.4,0.2,0.6C225.8,63.1,225.5,62.5,225.2,62.5 M216.2,64.9
		c0.1,0.4,0.3,0.6,0.6,0.6C216.6,65.2,216.5,64.8,216.2,64.9 M226.9,62c-0.1,0.2-0.7,0.2-0.4,0.6C226.7,62.4,227,62.3,226.9,62
		 M225.7,61.9c0.1,0.3,0.2,0.4,0.4,0.3C226.1,62,226,61.8,225.7,61.9 M223.2,62c0,0.1,0,0.2-0.1,0.3c0.1,0.3,0.3,0.3,0.5,0.4
		C223.5,62.4,223.4,62.2,223.2,62 M227.4,58.7c0.2,0.3,0.5,0.2,0.8,0.1C228,58.5,227.7,58.7,227.4,58.7 M222.4,60.1
		c0.1,0.5-0.3,0.8,0.3,1.2C222.5,60.9,222.8,60.4,222.4,60.1 M229.6,58c0.1,0.4,0.5,1.7,0.9,1.8C230.3,59.2,230,58.6,229.6,58
		 M225,58.2c0,0.1,0,0.2-0.1,0.3c0.1,0.2,0.5,0.8,0.6,0.4C225,58.9,225.5,58.3,225,58.2 M227.8,52.5c0.1,0,0.1,0.1,0.1,0.2v0v0
		c2.5,4,0.7,1.1,1.3,2v0l0,0c0,0.1-0.1,0.1,0,0.3c0.2,0.1,0.2-0.1,0.2-0.2l0-0.1l0,0v0l0,0c1.1,1.8-1.6-2.5-1.3-2h0l0,0l0,0
		C228,52.5,227.9,52.5,227.8,52.5 M219.7,55c0.2,0.2,0.5,0.4,0.5,0.6c0.2-0.1-0.2-0.5-0.3-0.7L219.7,55z M222.7,53.5
		c0,0-0.1,0.1,0,0.1c0.1-0.1,0.5,0.1,0.4-0.2c-0.3,0,0.1-0.2-0.2-0.4c-0.2,0.2-0.3-0.1-0.5,0c0.5,0.4-0.1,0.1,0,0.4
		C222.5,53.4,222.6,53.4,222.7,53.5 M221.8,52.9c-0.1-0.1-0.3-0.3-0.5-0.3c0.2,0.2-0.5,0.1-0.2,0.4c0.2-0.2,0.4,0.4,0.6,0.2
		c0.1-0.1-0.2-0.3-0.1-0.3C221.7,52.9,221.7,53,221.8,52.9 M222.2,52.6c0,0,0.1-0.1,0-0.1c-0.1,0-0.2-0.2-0.2-0.3
		c-0.1,0-0.2,0.1-0.3,0c0,0.2,0.2,0.1,0.4,0.5L222.2,52.6z M222.4,51.1c0.3,0.4,0.9,1.2,1.2,1.3C223.2,51.9,222.9,51.2,222.4,51.1
		 M213.7,55c0.1,0.1,0.1,0.2,0.2,0.3c0.1,0,0.2-0.1,0.3,0c-0.1,0.1,0.1,0.2,0.2,0.1C214.4,55.3,213.9,54.8,213.7,55 M218.7,52.4
		c0.1,0.2,0.2,0.7,0.5,0.6C219,52.8,219,52.4,218.7,52.4 M215.6,53.6c0.2,0.2,0.6,0.3,0.6,0.1C215.9,53.3,215.9,53.8,215.6,53.6
		 M217,52.4c0.4,0.3,0.7,0.7,1,1.1c0.1-0.1,0.1-0.4,0.1-0.6c-0.3,0-0.5-0.2-0.6-0.5C217.3,52.5,217.2,52.4,217,52.4 M216.1,52.9
		c0,0.2,0.4,0.8,0.6,0.5C216.5,53.2,216.3,52.9,216.1,52.9 M214,53.9c0.1,0.3,0.6,0.9,0.6,0.5C214.5,54.4,214.3,54,214,53.9
		 M215.3,52.9c-0.6,0.5-0.2,0.2,0.4,0.5L215.3,52.9z M222.3,48.9c0.4,0.6,0.9,1.1,1.5,1.5C223.5,49.9,223,49.1,222.3,48.9 M223.7,48
		c0.3,0.3,0.1,0.4-0.1,0.3c0.7,0.3,1,1,1.6,1.4C225,49.4,224,47.9,223.7,48 M221.9,49.9c-0.2-0.3-0.4-0.6-0.8-0.8
		C221.6,49.5,221.5,49.8,221.9,49.9 M215.2,52c0.1,0.2,0.3,0.6,0.6,0.6C215.7,52.5,215.4,52,215.2,52 M213.2,52.2
		c0.2,0.1,0.4,0.6,0.5,0.5C213.8,52.6,213.5,52,213.2,52.2 M215.1,54.4c-0.1,0-0.3-0.1-0.2-0.1c-0.2-0.1-0.1,0.1-0.4-0.1
		c-0.7-1.1-1.5-1.3-1.8-2.3c0.1-0.1,0.6,0.4,0.5,0c0.7,0.6,1.4,1.3,1.9,2c-0.7-0.2-0.6-0.7-1.1-1.1C213.6,53,214.8,53.7,215.1,54.4
		 M214.2,51c0.2,0.4,0.5,0.4,0.8,0.8c0.4-0.1-0.1-0.5-0.3-0.7C214.5,51.1,214.3,50.8,214.2,51 M212.7,51.2c0.1,0.2,0.2,0.4,0.4,0.6
		c0.1-0.1,0.2-0.2,0.1-0.3C213.1,51.5,212.9,51.1,212.7,51.2 M216.5,49.2c0.2-0.1,0,0.2,0.3,0.4C217.3,49.5,216.4,48.8,216.5,49.2
		 M207.4,53.2c0.3,0.3,0.7,1.2,0.8,0.7C208.3,54,207.3,53,207.4,53.2 M213.8,44.1l0.1,0l0.1,0h0c-1.1-0.6,9.7,5.4,5.2,2.9l0,0l0,0
		c0.1,0.1,0.3,0.1,0.4,0l-0.1-0.1l0,0v0l-5.3-3h0l-0.1,0h-0.1c-0.1,0-0.2,0-0.3,0.1L213.8,44.1z M213.3,45.6l0.1,0l0.1,0l0,0h0
		c1.7,1-3.9-2.2,3.9,2.2h0l0,0l0.2,0.3c0.1,0.2,0.2,0.4,0.4,0.4c-0.1-0.2-0.2-0.4-0.3-0.6l-0.1-0.1l0,0l0,0v0h0l0,0
		c-8.1-4.5-2.2-1.2-4-2.3l0,0L213.3,45.6c0-0.1-0.1-0.1-0.2,0L213.3,45.6z M211.3,52.1c-0.4-0.1-0.7,0-0.5,0.2
		C211.1,52.3,211.3,52.3,211.3,52.1 M211.2,50.3c0.2,0,0.2,0.1,0.4,0.1c0,0.1-0.2,0.1-0.2,0.2c1,0.1,0.6,1.1,1.3,1
		c-0.2-0.2-0.3-0.5-0.4-0.8c-0.2-0.2,0.2-0.2-0.4-0.5C211.6,50.3,211.4,50.3,211.2,50.3 M212.5,42c0.1-0.2,0.2,0.1,0.5,0.1
		C213.4,41.8,212.1,41.7,212.5,42 M212.4,41.4c0.5,0.2,1,0.3,1.5,0.2C213.8,41.6,212.8,41.2,212.4,41.4 M207.7,53.7
		c-0.1,0.2-0.1,0.3,0.2,0.4C208.1,54.1,208.2,53.8,207.7,53.7 M207.1,54.2c0.3,0.1,0.6,0.2,1,0.1C207.7,54.2,207.4,54.1,207.1,54.2
		 M211.1,41.2c0.3,0.2,0.7,0.2,1,0.1C211.7,41.2,211,40.9,211.1,41.2 M210.5,42.3c0.7,0,1.5,0.2,2.2,0.5c0.2-0.2-0.1-0.2,0-0.4
		c-0.5,0-1-0.1-1.5-0.4c0,0.2-0.1,0.3-0.5,0.2C210.6,42.2,210.5,42.2,210.5,42.3 M206,54.4c0,0,0.1-0.1,0.2,0
		c0.3,0.4,1.2,0.3,1.8,0.4C207.6,54.4,206.1,54.1,206,54.4 M206.8,51.7c0.1-0.1,0.2-0.1,0.2-0.2c-0.4-0.1-0.4,0-0.7-0.1
		C206.2,51.5,206.4,51.6,206.8,51.7 M209.3,42.6c-0.5-0.1-0.4,0.1-0.4,0.3C209.3,43.1,209.2,42.7,209.3,42.6 M208.2,44
		c0.3,0,0.8,0.1,0.9,0c-0.3-0.1-0.4-0.2-0.8-0.2L208.2,44z M204.5,54.2c0.2,0.1,0.7,0.1,1.2,0.2l0.1-0.3
		C205.3,54.1,204.7,54,204.5,54.2 M207.9,43.1c0.8-0.1,1.3,0.5,1.7,0.2C209.1,43.2,208.1,42.8,207.9,43.1 M205.1,51.5
		c0.2,0.2,0.3,0,0.7,0.1C205.9,51.3,205.3,51.5,205.1,51.5 M204.4,52.5c0.6,0.1,0.7,0.3,1.3,0.3C205.7,52.5,204.6,52.2,204.4,52.5
		 M203.5,53.6c0.4,0.1,0.8,0.2,0.9,0C204.2,53.5,203.5,53.4,203.5,53.6 M206.7,42.5c0.5,0,1,0.2,1.5,0.4c0-0.5-1.2-0.3-1.2-0.8
		C206.9,42.4,207,42.4,206.7,42.5 M204.4,49.2c0.4,0.2,0.8,0.3,1.3,0.2C205.3,49.3,204.6,49,204.4,49.2 M206.8,40.3
		c0.3,0.1,0.6,0.2,0.8,0.1C207.5,40.3,206.9,40.1,206.8,40.3 M203.3,53.3c0.3-0.4-0.8-0.4-0.8-0.2L203.3,53.3z M200.7,52.8
		c0.3,0.2,0.8,0.2,1.1,0.1C201.5,52.9,200.7,52.5,200.7,52.8 M203.7,43.2c0.4,0.1,0.8,0.4,1,0.1C204.2,43.3,203.7,42.9,203.7,43.2
		 M200.7,52c1.2,0.1,1.8,0.5,3,0.3c-0.7-0.2-1.7-0.3-2.9-0.5L200.7,52z M204.4,40.1c0.6-0.1,1.4,0.4,2.3,0.2
		C206,39.9,205.2,39.9,204.4,40.1 M200.2,51.2c0.5,0.2,1,0.3,1.5,0.2c-0.1,0-0.2-0.1-0.1-0.1c-0.1,0-0.1-0.1-0.2-0.1
		C201.2,51.5,200.4,50.8,200.2,51.2 M201.8,46.5c0.4,0.1,0.8,0.4,1,0.1C202.8,46.4,201.6,46.3,201.8,46.5 M203.1,44.1
		c0.5,0.2,0.2-0.3,0.8-0.1c0.2-0.2-0.4-0.2-0.2-0.4c-0.6-0.2-0.8,0-1.2,0.1C202.7,43.8,203.4,43.9,203.1,44.1 M198.9,52.4
		c0.3,0.2,0.7,0.2,1,0.1C199.6,52.4,199.3,52.4,198.9,52.4 M201.2,44.1c0.4,0.2,0.9,0.3,1.4,0.5l0.1-0.3
		C202,44.2,201.6,44,201.2,44.1 M198.1,50.9c0.5,0.1,1.4,0.4,1.5,0.2C199.6,50.8,198.5,50.8,198.1,50.9 M197.9,51.5
		c0.9,0.3,1.2,0.1,2.2,0.4l0.1-0.3C199.4,51.8,198.7,51.2,197.9,51.5 M200.5,43.4c0.4,0.2,0.6,0.1,0.9,0.4c0-0.3,0.7,0.1,0.7-0.2
		c-0.4-0.2-0.9-0.3-1.3-0.3C200.7,43.3,200.6,43.4,200.5,43.4 M197.2,41.7c0,0.1,0,0.3,0.2,0.4c0-0.2,0.4-0.1,0.4-0.3L197.2,41.7z
		 M194.9,47.8c0.3,0,0.8,0.2,0.8,0.1C195.7,47.9,194.9,47.6,194.9,47.8 M196.7,41.3c0.1,0.1,0.6,0.3,0.7,0.1c-0.1,0-0.1-0.1-0.1-0.2
		C197.1,41.2,196.9,41.2,196.7,41.3 M193.3,51.3c0.4,0,0.2,0.2,0.5,0.2c0.2-0.1,0.3-0.4-0.2-0.4c-0.1,0-0.1,0.1-0.2,0.1
		C193.5,51.2,193.3,51.2,193.3,51.3 M195.8,41c0.4,0.1,0,0.5,0.6,0.4c0.1-0.1-0.1-0.2-0.2-0.3c0.1,0,0.3,0.1,0.3,0
		C196.5,41,195.9,40.8,195.8,41 M194.9,41.6c0.1,0.1,0.6,0.3,0.7,0.1c-0.6,0,0.1-0.3-0.3-0.4C195.3,41.6,194.9,41.5,194.9,41.6
		 M191.1,52.3c0.3,0.2,0.7,0,0.9-0.1C191.6,52.1,191.2,52,191.1,52.3 M194.8,41.1c0.4,0.1,0.7,0.2,0.8-0.1c-0.6-0.1,0.2-0.2-0.3-0.3
		C195,40.8,195,41.1,194.8,41.1 M194,41.3c0.4,0,0.5,0.3,0.8,0.2c0.1-0.1,0-0.2-0.3-0.3c-0.1,0-0.1,0.1-0.2,0.1
		C194.1,41.2,194,41.1,194,41.3 M193.3,40.8c0.4,0.1,0.8,0.2,1.2,0.3c0.1-0.1,0.4-0.1,0.4-0.3c-0.7-0.2-0.9,0.1-1.4-0.2
		C193.4,40.7,193.3,40.7,193.3,40.8 M191.6,45.7c0.2,0-0.5,0.4,0.3,0.5c-0.1-0.2,0-0.3,0.3-0.4c-0.2,0-0.2-0.1-0.4-0.1
		C191.7,45.6,191.6,45.6,191.6,45.7 M190.7,48.3c0.4,0.1,0.7,0.3,0.9,0C191.3,48.3,191,48.3,190.7,48.3 M189.8,46.7
		c-0.4-0.1,0-0.1-0.4,0v0.1c0.5,0.1-0.1,0,0.4,0L189.8,46.7z M189.3,45.6c0,0.1,0.1,0.3,0.3,0.3c0-0.2,0.9,0,0.9-0.2
		C190,45.6,189.6,45.6,189.3,45.6 M189.1,49.8v-0.1c0.1,0,0.1,0,0.1-0.1c0.1,0,0.1,0.1,0.1,0.1c0.1,0,0.1,0,0.2,0l0.1,0l0,0
		c0.3,0-2.2-0.2-1.1-0.1h0h0c0.1,0,0.1,0,0.2,0.1c0,0-0.1,0.1-0.1,0l-0.1,0l-0.1,0h0h0c2.4,0.2,0.7,0.1,1.2,0.1h0l0,0h0
		C189.4,49.8,189.3,49.8,189.1,49.8 M188.5,49.1c0.3,0,0.6,0,0.9-0.1l0.2,0h0l-0.9-0.1l0,0l0,0h0h0l0.1,0c0.1,0,0.2-0.1,0.2-0.2
		l-0.2,0l-0.1,0l0,0h0l0,0c-0.2,0,1.6,0.2,0.8,0.1h0l-0.2,0l-0.4-0.1C188.9,48.9,188.7,49,188.5,49.1 M188,50.7
		c0.3,0.1,0.6,0.1,0.9,0.1h0.5h0.2l0.1,0h0.1c-3-0.3-0.8-0.1-1.5-0.1l0,0l0.1,0c0.5,0.1,1.1,0.1,1.6,0.1c-0.3-0.1-0.6-0.2-0.9-0.3
		l-0.4-0.1l-0.2,0l0,0h0v0h0c0.6,0.1-1.4-0.1,1.4,0.1h0l-0.1,0C189,50.5,188.5,50.6,188,50.7 M187,42.4c0.3,0,0.6,0,0.8-0.2
		c-0.2,0.1-0.5,0-0.7-0.1C187.3,42.2,186.9,42.2,187,42.4 M187,38.1c0.5-0.1,0.5,0.1,1,0.1c0.1-0.3-0.4,0.1-0.3-0.2
		C187.6,38,186.6,38,187,38.1 M186.7,51c0.4,0,0.4-0.2,0.6-0.3h-0.6V51z M185.7,47.4c-0.3-0.1-0.9,0-0.6,0.1
		c0.5-0.1,0.2,0.4,0.7,0.6C186.2,47.8,185.7,47.7,185.7,47.4 M184.7,44.5c0.5-0.3,1.5,0.2,1.7-0.2c-0.9,0-0.6-0.2-1.4-0.1
		C185.2,44.4,184.6,44.3,184.7,44.5 M184.6,40.1c0.3,0.1,0.7,0,1-0.1C185.4,39.8,185,40.1,184.6,40.1 M184.3,47.9
		c0.5-0.1,0.2,0.2,0.6,0.2c0.7-0.2-0.3-0.1,0.4-0.4c-0.4,0.1-0.5-0.1-0.8-0.1C184.4,47.8,184.3,47.8,184.3,47.9 M184.2,44.8
		c-0.4-0.1-0.4,0.1-0.6,0.1c-0.2,0-0.3-0.1-0.4,0c0.3,0.1,0.7,0.1,0.9,0.2C184.2,45,184.3,45,184.2,44.8 M182.5,51.1
		c0.9,0,1.8,0,2.7-0.2c-0.9-0.1-1.8-0.1-2.7,0V51.1z M182.3,38.4c0.5,0,1-0.1,1.4-0.2C183.2,38.2,182.5,38.1,182.3,38.4 M179.9,50.5
		c0,0,0-0.1-0.1-0.1c-0.1,0.3,0.7,0.1,0.8,0.2c0.3-0.1,0-0.4-0.3-0.4C180.3,50.4,179.9,50.4,179.9,50.5 M172.8,40L172.8,40L172.8,40
		L172.8,40c2.9-0.8-6.3,1.7,6.5-1.7h0l0,0l0.2,0.1l0.5,0.1c0.3,0,0.7,0,0.9-0.2c-0.3-0.1-0.7-0.1-1,0.1c0-0.1-0.2-0.2-0.4-0.2
		l-0.3,0h0h0c1.4-0.4-12.3,3.3-6.5,1.7h0v0h0L172.8,40l-0.1,0L172.8,40z M171.9,40.9c0.4-0.1,1-0.3,0.8-0.6
		C172.5,40.5,171.9,40.7,171.9,40.9 M182.5,51.3c0.5-0.3,1.1-0.6,1-0.9C183.1,50.7,182.2,51,182.5,51.3 M176.1,45.6
		c0.2-0.1,0.3-0.1,0.5,0c-0.1,0.1-0.1,0.1,0,0.2c0.6-0.4-0.5-0.2-0.3-0.4l-0.2,0.1C176.2,45.5,176.1,45.6,176.1,45.6 M171.1,41.1
		c0.3-0.2,0.6-0.4,0.9-0.5c-0.1-0.1,0.1-0.3-0.1-0.4l-0.6,0.3C172,40.7,170.6,41.2,171.1,41.1 M172,42.5c0.2,0,0.7-0.3,0.4-0.5
		C172.1,42.1,171.8,42.3,172,42.5 M176.5,46.9c0.4-0.2,0.4-0.3,0.4-0.5C176.6,46.4,176.2,46.7,176.5,46.9 M170.9,41.6
		c0.4-0.1,0.6-0.3,0.8-0.6C171.5,41,170.7,41.4,170.9,41.6 M176,46.6c0.2,0,0.4-0.2,0.5-0.4c-0.1,0-0.2,0.1-0.3,0.1
		c0.1-0.1-0.1-0.1-0.2,0C176,46.3,176,46.5,176,46.6 M181.2,52.1c0.4-0.1,0.9-0.5,0.8-0.8C181.6,51.6,181.2,51.8,181.2,52.1
		 M169.7,42.2c0.2-0.1,0.4,0,0.7-0.2C170.3,41.8,169.7,42,169.7,42.2 M173.9,47.6c0.3-0.3,0.8-0.3,0.8-0.5
		C174.3,47.2,173.9,47.3,173.9,47.6 M178.4,52.6c0-0.1,1-0.5,0.7-0.7C178.7,52.1,178,52.6,178.4,52.6 M168.1,43.8
		c0.3-0.2,0.4-0.4,0.5-0.8C168.2,43.1,167.8,43.6,168.1,43.8 M173.4,49.1C174.6,48.6,173.3,48.7,173.4,49.1 M166.9,43.1
		c0.4,0,0.7-0.2,0.9-0.5C167.5,42.6,166.7,42.9,166.9,43.1 M176,54.2c0-0.3,1-0.4,0.6-0.6C176.3,53.8,175.5,54.2,176,54.2
		 M172.1,50.7c-0.1-0.1,0.2-0.4,0.4-0.3c0.1,0.2-0.5,0.4-0.2,0.5c0.6-0.2,0.3-0.7,0.4-1c-0.1,0.1-0.3,0.1-0.3,0
		C172,50.1,171.7,50.6,172.1,50.7 M163.8,43.1c0.4-0.1,0.8-0.3,1.2-0.6C164.8,42.4,163.9,42.9,163.8,43.1 M170.6,50.8
		c0.2-0.2,0.5-0.5,0.7-0.7C171.1,50.1,170.4,50.6,170.6,50.8 M163.4,45.3c0.4-0.2,1.1-0.5,0.9-0.7C164.1,44.7,163.6,45.2,163.4,45.3
		 M165.6,47.3c-0.1,0.3,0.2,0.1,0.3,0.3c0.2-0.1,0.4-0.2,0.4-0.3C166.1,47.4,166,47,165.6,47.3 M173.5,55.8c0.3-0.1,0.6-0.3,0.9-0.4
		c0.1-0.1,0.3-0.3,0.1-0.4C174.1,55.4,173.5,55.5,173.5,55.8 M167.7,51.4c0.4,0,0.7-0.2,0.9-0.5c-0.2-0.2-0.4,0-0.5-0.3
		C168.1,51.1,167.7,50.9,167.7,51.4 M166.7,49.6c-0.2-0.2-0.6,0-1.1,0.2C165.9,49.9,166.3,49.6,166.7,49.6 M160.2,45.4
		c0.1,0.2,0.4,0,0.6,0.2c0.2-0.1,0.3-0.3,0.3-0.4C160.7,45.5,160.6,45.2,160.2,45.4 M167.4,53.3c0.9-0.2-0.4,0.4,0.6,0.3
		C168.4,53.1,167.6,52.7,167.4,53.3 M167,53.9c0.2-0.1,0.4-0.2,0.4-0.3c-0.5,0.2-0.1-0.2-0.6,0C166.8,53.8,166.9,53.6,167,53.9
		 M171.3,58c0.4-0.2,0.7-0.5,1-0.8C171.8,57.3,171.2,57.7,171.3,58 M162.3,49.5c0.2,0.2,0.5,0.2,0.7,0c-0.1-0.1-0.3,0-0.2-0.2
		c0.2,0.1,0.7-0.4,0.9-0.2c0.6-0.4,1.5-0.8,1.6-1.4c-0.9,0.4-1.1,1.2-1.8,1.2c-0.1-0.1,0.2-0.2,0.1-0.3
		C163.2,49,162.7,49.3,162.3,49.5 M159.9,49.1c0.3-0.1,0.6-0.2,1-0.1c-0.1-0.4-0.2-0.8,0.6-1.3c0.6,0,0.8-0.4,1.4-0.5
		c-0.1-0.1-0.1-0.2,0-0.3c0,0,0,0,0,0c0.3,0.1,0.9-0.2,0.8-0.5c-0.3,0.1-0.6,0-0.9,0.1c-0.3,0.1,0.3,0.2,0,0.4
		c-0.9,0.5-1.8,1-2.6,1.6c0.2,0,0.4,0.1,0.6,0.2C160.4,48.9,159.9,48.9,159.9,49.1 M160.9,63.9c0.4-0.2,0.7-0.3,0.8-0.6
		c0.2,0.1,1-0.3,0.9-0.5c-0.2,0.1-0.2-0.1-0.4,0c-0.1,0.2-0.2,0.3-0.3,0.4c-0.1-0.1-0.3,0-0.4-0.1c-0.4,0.3-0.4,0.3-0.8,0.6
		L160.9,63.9z M162.5,66.6c0-0.3,0.2-0.6,0.4-0.8c-0.4,0-0.4,0.4-0.7,0.8C162.3,66.6,162.4,66.7,162.5,66.6 M161.2,66.7
		c0.1-0.3,0.2-0.6,0.2-0.9C161.1,66,160.9,66.6,161.2,66.7 M140.2,67.4c0.3,0,0.2-0.6,0.4-0.8C140.1,66.5,140.4,67,140.2,67.4
		 M161.4,69.9c0-0.3,0.2-0.3,0.1-0.6c-0.5-0.1-0.1-0.5-0.2-0.8C161,68.6,161.1,69.8,161.4,69.9 M162.5,71.3c0.2-0.2,0.1-0.6-0.1-0.5
		C162.3,71,162.3,71.3,162.5,71.3 M161.9,72.1c0-0.1,0.1-0.1,0.2-0.1c0-0.3,0.1-0.7-0.1-0.8C161.9,71.5,161.6,71.9,161.9,72.1
		 M162.5,72.5c0.1-0.7,0.3-0.4,0.4-0.8c-0.5-0.1-0.5,0.4-0.6,0.6c-0.1,0-0.1-0.2-0.3-0.2c0,0.2-0.2,0.2-0.2,0.3c0.5,0-0.3,0.4,0,0.5
		C162.3,72.7,162,72.2,162.5,72.5 M140.3,72.2c0.1-0.3,0.2-0.6-0.2-0.6C140.1,71.9,140.1,72.2,140.3,72.2 M142.1,80.5
		c-0.1-0.2,0.4-0.1,0.2-0.4c-0.1,0-0.1,0-0.2,0l-0.1-0.1l0,0l0,0l0,0c-1.7-7.9-0.5-2.2-0.9-4v0c0-0.2,0-0.3-0.2-0.3l0,0.2l0,0.1v0
		l0,0c-0.2-0.9,1.6,7.6,0.9,4l0,0l0,0l0.1,0.1C141.9,80.4,142,80.5,142.1,80.5 M143.1,81.8c-0.1-0.2-0.2-0.5-0.3-0.7
		c-0.2,0.2-0.1,0.1-0.4,0.1c0.2,0.3-0.1,0.3,0.2,0.7C142.9,81.6,142.7,81.7,143.1,81.8 M164.1,77.3c-0.2-0.2-0.3-0.6-0.6-0.5
		C163.4,77,163.8,77.4,164.1,77.3 M167.4,80.1c0.1-0.2-0.3-0.6-0.5-0.4C167,79.9,167.2,80,167.4,80.1 M169,83c0-0.2-0.1-0.4-0.2-0.6
		c-0.1,0.1-0.2-0.1-0.4,0C168.3,82.6,168.7,82.9,169,83 M169.5,83c-0.4,0,0,0.6,0.3,0.5L169.5,83z M170.4,84.4
		c-0.1-0.3-0.3-0.3-0.3-0.5c-0.1,0-0.2,0-0.3,0C170,84.2,170.2,84.5,170.4,84.4 M170.4,85.3c-0.1-0.1-0.2-0.3-0.3-0.5
		C169.7,84.9,170.1,85.2,170.4,85.3 M176.5,88.2C175.7,87.4,175.7,88.3,176.5,88.2 M186.9,92.1c-0.5-0.2-0.8,0.2-0.2,0.2
		C186.7,92.2,186.8,92.1,186.9,92.1 M189.8,91.9c1-0.2-0.5-0.7-0.5-0.3C189.5,91.7,189.7,91.8,189.8,91.9 M192,91.1
		c-0.3,0-0.2-0.2-0.6,0c0,0.2,0.1,0.3,0.4,0.3C191.8,91.2,192,91.2,192,91.1 M204.4,104.9c-0.4,0.1-0.4,0-0.7,0c0,0.1,0,0.2-0.1,0.2
		c0.4-0.1,0.4-0.2,0.4,0.1C204.4,105.2,204.4,105,204.4,104.9 M204.3,91.7c0-0.2-0.9-0.2-0.9,0C203.7,91.8,204,91.8,204.3,91.7
		 M204.4,90.1c-0.4,0-0.8,0.1-0.6,0.3C204,90.4,204.6,90.3,204.4,90.1 M208.5,104.1c-0.3,0.1-0.5,0.2-0.5,0.4
		C208.3,104.5,208.4,104.3,208.5,104.1 M208.1,96.2c-0.1-0.2,0.2-0.5-0.3-0.5c0,0.1-0.1,0.1-0.2,0.2
		C207.6,96.1,207.8,96.2,208.1,96.2 M207.9,95c-0.1-0.3-0.6-0.1-0.8-0.3C207.1,95,207.4,95,207.9,95 M208.9,98.2
		c-0.5,0.1-0.6,0.3-1.2,0.3c0.1,0.4,0.6-0.1,0.8,0.2c-0.3,0-0.5,0.2-0.6,0.5c0.4-0.1,0.8-0.3,1.2-0.5
		C209,98.5,208.6,98.4,208.9,98.2 M208.8,98c-0.3,0-0.7,0.1-0.9,0.3C208.3,98.3,208.6,98.2,208.8,98 M208.1,95.2
		c-0.5-0.1-0.9,0.2-0.9,0.4C207.5,95.6,208.1,95.4,208.1,95.2 M210.7,102c-0.4,0.1-0.4,0.4-0.4,0.6
		C210.8,102.6,210.7,102.3,210.7,102 M207.8,90.7c-0.6,0.1-0.9,0-0.9,0.4c0.4,0,0.4-0.4,0.7-0.1c-0.6,0.1,0.1,0.2,0,0.4
		C208.4,91.2,207.4,90.8,207.8,90.7 M208.9,92.1c0-0.2-0.2-0.2-0.6-0.1C208.3,92.2,208.5,92.2,208.9,92.1 M215.2,62.3
		c-1.5,1-5.2,3.2-5.2,3.2l2-0.6c0,0,5.6-4,6.6-4.5C217.4,60.9,216.3,61.5,215.2,62.3 M238,76.7c2.5,2.4,4.7,5.1,6.5,8
		c-1.9-2.3-4.1-4.4-6.5-6.2c-1.3-0.9-2.8-1.8-4.3-2.4c-1.4-0.6-2.9-1.1-4.3-1.4c-0.4-0.1-0.9-0.2-1.3-0.3c-0.4-0.1-0.9-0.1-1.3-0.2
		c-0.4,0-0.9-0.1-1.3-0.1s-1.4,0-1.4,0s-3.1,3.3-6.3,3.7c-2.4,0.1-4.9,0.1-7.3,0c0,0-2,0.4-2.6,1.7c-1.7,0.7-5.6,1.5-7.3,2.6
		c1.5,2.6,9.2,4.2,10.9,4.8c-3.5,0.7-14.4-3.3-13.2-4.9c1.1-1.1,2.2-2,3.5-2.8c1.3-0.9,2.7-1.7,4.1-2.4c0.3-0.8,0.5-1.5,0.8-2.2
		c0.3-0.7,0.5-1.4,0.8-2.1c0.3-0.7,0.5-1.4,0.8-2.1s0.5-1.3,0.7-2c-0.2,0-0.5,0-0.7,0s-0.4,0-0.6,0s-0.4,0-0.5,0
		c-0.2,0-0.3,0-0.5-0.1c-0.1,0-0.2-0.1-0.3-0.1c-0.1-0.1-0.2-0.1-0.3-0.2c-0.1-0.1-0.1-0.3-0.1-0.4c0-0.2,0-0.4,0-0.6
		c0.7-0.2,1.3-0.3,2-0.5s1.3-0.3,2-0.5c0.7-0.2,1.3-0.3,2-0.5c0.7-0.2,1.3-0.3,2-0.5c-0.1,0.4-0.3,0.7-0.4,1.1s-0.2,0.8-0.4,1.1
		s-0.3,0.8-0.4,1.2s-0.3,0.8-0.4,1.2c-0.1,0.2-0.1,0.4-0.1,0.6c0,0.2,0,0.4,0.1,0.6c0.1,0.2,0.2,0.4,0.3,0.5
		c0.2,0.1,0.3,0.3,0.6,0.3c0.1,0,0.1,0,0.2,0c0.1,0,0.1,0,0.2,0c0.1,0,0.1,0,0.2,0c0.1,0,0.2,0,0.2,0l19.4-4.6l-5.3,3.3l0.7,1.8
		c1.6,0.4,3.2,1,4.6,1.7C235.2,74.5,236.7,75.5,238,76.7"/>
	<g transform="translate(259.748 86.649)">
		<g>
			<defs>
				<rect id="SVGID_1_" x="0" y="0" width="137.9" height="11.5"/>
			</defs>
			<clipPath id="SVGID_2_">
				<use xlink:href="#SVGID_1_"  style="overflow:visible;"/>
			</clipPath>
			<g transform="translate(0 0)" class="st1">
				<path class="st2" d="M3,0.8v4.3h4.4v0.7H3v5.4H1.3V1.8c0-0.6-0.4-1.2-1.3-1.4V0.3h8.2v0.6H3z"/>
				<path class="st2" d="M25.1,5.7c0,4-2.4,5.7-5.3,5.7s-5.3-1.7-5.3-5.7c0-3.8,2.4-5.7,5.3-5.7S25.1,1.9,25.1,5.7 M23.3,5.7
					c0-3.5-1.6-5.2-3.5-5.2c-1.9,0-3.5,1.7-3.5,5.2c0,3.6,1.6,5.2,3.5,5.2C21.7,10.9,23.3,9.4,23.3,5.7"/>
				<path class="st2" d="M40.5,11.2h-1.9l-3.5-4.9c-0.5,0-0.9,0-1.2,0v4.9h-1.6V1.8c0-0.8-0.6-1.4-1.3-1.5V0.3h3
					c1.7,0,5.2,0,5.2,3.1c0.1,1.4-0.9,2.6-2.3,2.8L40.5,11.2z M36.8,5.1C36.9,5,37,4.8,37.1,4.7c0.1-0.2,0.2-0.4,0.2-0.6
					c0-0.3,0.1-0.5,0.1-0.8c0.1-1.3-0.8-2.4-2.1-2.5c-0.1,0-0.1,0-0.2,0h-1.2v4.9h1.2c0.2,0,0.4,0,0.6,0c0.3,0,0.6-0.1,0.8-0.3
					C36.6,5.3,36.7,5.2,36.8,5.1"/>
				<path class="st2" d="M55.7,0.3v7.4c0,0.7-0.1,3.8-4.3,3.8c0,0-4.3,0.2-4.3-3.8V1.8c0-0.6-0.4-1.2-1.3-1.5V0.3h3v7.4
					c0,3.3,2.8,3.1,2.8,3.1c0.9,0,3.4-0.3,3.4-3.1V0.3H55.7z"/>
				<path class="st2" d="M75,11.2L75,11.2l-1.7,0L72,3.7l-4.1,7.5l-3.7-7l-0.8,7h-0.7l0.8-6.8C63.6,3.5,64,1,62.3,0.6V0.5
					c2.1,0.1,2.8,2,3.4,3l2.7,5.2l4.6-8.5L75,11.2z"/>
				<path class="st2" d="M97.5,10.6v0.7h-6.8c0,0,0.2-0.3,0.3-0.4l1.8-2.6c0.7-1,1.4-2.1,2.1-3.1c0.6-0.9,1.5-1.9,1-3.1
					c-0.3-0.6-1-1-1.7-1c-0.1,0-0.2,0-0.3,0c-1.3,0-2.3,0.9-2.4,2.2H91C91,2.8,91.1,2.4,91.3,2c0.1-0.3,0.3-0.6,0.5-0.9
					c0.4-0.6,1.1-0.9,1.8-1.1c1.3-0.3,2.6,0.2,3.5,1.2c0.3,0.4,0.4,1,0.4,1.5c0,0.9-0.3,1.8-0.8,2.5L93,10.6L97.5,10.6z"/>
				<path class="st2" d="M111.2,5.8c0,3.9-1.6,5.6-3.5,5.6c-2,0-3.5-1.8-3.5-5.6c0-3.8,1.6-5.6,3.5-5.6
					C109.6,0.2,111.2,1.8,111.2,5.8 M109.7,5.8c0-3.6-0.9-5.2-2.1-5.2c-1.2,0-2.1,1.7-2.1,5.2c0,3.5,0.9,5.1,2.1,5.1
					C108.8,11,109.7,9.4,109.7,5.8"/>
				<path class="st2" d="M124.6,10.6v0.7h-6.8c0,0,0.2-0.3,0.3-0.4l1.8-2.6c0.7-1,1.4-2.1,2.1-3.1c0.6-0.9,1.5-1.9,1-3.1
					c-0.3-0.6-1-1-1.7-1c-0.1,0-0.2,0-0.3,0c-1.3,0-2.3,0.9-2.4,2.2H118c0.1-0.4,0.2-0.8,0.3-1.2c0.1-0.3,0.3-0.6,0.5-0.9
					c0.4-0.6,1.1-0.9,1.8-1.1c1.3-0.3,2.6,0.2,3.5,1.2c0.3,0.4,0.4,1,0.4,1.5c0,0.9-0.3,1.8-0.8,2.5l-3.7,5.3L124.6,10.6z"/>
				<path class="st2" d="M134.8,11.4c-1.3,0.2-2.7-0.2-3.7-1.1l0.6-0.7c0.6,0.7,1.6,1.1,2.5,1.1c1.2-0.1,2.1-1.1,2-2.3
					c0-0.1,0-0.1,0-0.2c0-0.7-0.3-1.4-0.8-2c-0.2-0.2-0.6-0.4-0.9-0.4H133V5.1h1.6c0.3,0,0.6-0.1,0.9-0.4c0.4-0.5,0.7-1,0.7-1.6
					c0.1-1.1-0.6-2-1.6-2.2c-0.1,0-0.1,0-0.2,0c-0.9-0.1-1.7,0.3-2.3,0.9l-0.6-0.6c0.9-0.8,2.1-1.2,3.3-1c3,0.3,2.7,2.8,2.7,2.8
					c-0.1,1-0.7,1.9-1.6,2.4c1.1,0.5,1.9,1.5,1.9,2.7C137.9,8.2,138.1,11,134.8,11.4"/>
			</g>
		</g>
	</g>
</g>
</svg>
